<svg width="73" height="97" viewBox="0 0 73 97" fill="none" xmlns="http://www.w3.org/2000/svg">
<path d="M36.501 28.5532V41.3183L45.6349 35.7713L36.501 28.5532Z" fill="#D4492A"/>
<path d="M36.5 0C26.8225 0.00941373 17.5441 3.84479 10.701 10.6644C3.858 17.484 0.00944608 26.7306 0 36.375L0 60.625C0 70.2722 3.84552 79.5244 10.6906 86.346C17.5357 93.1676 26.8196 97 36.5 97C46.1804 97 55.4643 93.1676 62.3094 86.346C69.1545 79.5244 73 70.2722 73 60.625V36.375C72.9906 26.7306 69.142 17.484 62.299 10.6644C55.4559 3.84479 46.1775 0.00941373 36.5 0V0ZM55.2674 63.6118L35.0015 79.9325C34.2661 80.5015 33.3635 80.8139 32.4326 80.8215C31.8291 80.8113 31.2342 80.6782 30.6843 80.4304C30.0151 80.1007 29.4489 79.5954 29.0465 78.9689C28.6441 78.3423 28.4209 77.6182 28.4008 76.8746V58.2427L23.2273 63.3985C22.4524 64.1472 21.4166 64.5678 20.3372 64.5718C19.8074 64.5728 19.2827 64.4696 18.7929 64.2682C18.3031 64.0669 17.858 63.7714 17.4829 63.3985C16.7311 62.6341 16.31 61.6064 16.31 60.5361C16.31 59.4658 16.7311 58.4381 17.4829 57.6738L26.7239 48.4644L17.3759 39.1129C16.683 38.337 16.3153 37.3257 16.3489 36.2876C16.3824 35.2495 16.8145 34.2638 17.556 33.534C18.2975 32.8041 19.2919 32.3858 20.3339 32.3653C21.3759 32.3448 22.3861 32.7236 23.1559 33.4238L28.5435 38.6507V20.1965C28.5687 19.4646 28.7923 18.7533 29.1906 18.1379C29.5889 17.5226 30.1471 17.0262 30.8058 16.7017C31.4644 16.3771 32.199 16.2364 32.9315 16.2946C33.664 16.3527 34.367 16.6075 34.9658 17.0319L55.2317 33.0682C55.7622 33.4885 56.1799 34.0332 56.4477 34.6537C56.7154 35.2742 56.8247 35.951 56.7659 36.6239C56.7246 37.2761 56.5243 37.9085 56.1824 38.4661C55.8404 39.0238 55.3671 39.4899 54.8035 39.824L40.5318 48.5356L54.8035 57.1404C55.3631 57.4791 55.8332 57.9463 56.1746 58.503C56.5159 59.0598 56.7187 59.6898 56.7659 60.3405C56.7939 60.9651 56.6727 61.5874 56.4122 62.1561C56.1516 62.7249 55.7593 63.2238 55.2674 63.6118Z" fill="#D4492A"/>
<path d="M36.501 68.3418L45.6349 60.9459L36.501 55.5056V68.3418Z" fill="#D4492A"/>
</svg>
