<svg width="94" height="93" viewBox="0 0 94 93" fill="none" xmlns="http://www.w3.org/2000/svg">
<g clip-path="url(#clip0)">
<path d="M47 1.31648e-05C37.7043 1.31648e-05 28.6173 2.72719 20.8882 7.83668C13.1591 12.9462 7.135 20.2085 3.57768 28.7052C0.020364 37.202 -0.910392 46.5516 0.903113 55.5717C2.71662 64.5918 7.19293 72.8773 13.766 79.3805C20.3391 85.8836 28.7137 90.3123 37.8308 92.1065C46.9479 93.9007 56.398 92.9799 64.9861 89.4604C73.5743 85.9409 80.9147 79.9809 86.0791 72.334C91.2435 64.6871 94 55.6968 94 46.5C94.0047 40.3923 92.7921 34.3435 90.4318 28.6998C88.0715 23.0561 84.6097 17.9281 80.2444 13.6093C75.8791 9.29045 70.696 5.86547 64.9916 3.53025C59.2872 1.19504 53.1735 -0.00458432 47 1.31648e-05ZM47 83.7C39.5634 83.7 32.2939 81.5183 26.1106 77.4307C19.9273 73.3431 15.108 67.5332 12.2622 60.7358C9.4163 53.9384 8.67169 46.4587 10.1225 39.2427C11.5733 32.0266 15.1544 25.3982 20.4128 20.1956C25.6713 14.9931 32.3709 11.4502 39.6646 10.0148C46.9583 8.57943 54.5184 9.31611 61.3889 12.1317C68.2594 14.9473 74.1317 19.7153 78.2633 25.8328C82.3948 31.9503 84.6 39.1425 84.6 46.5C84.6 56.3661 80.6386 65.828 73.5872 72.8044C66.5359 79.7807 56.9722 83.7 47 83.7Z" fill="#D4492A"/>
<path d="M46.9639 67.3373C58.5569 67.3373 67.9548 58.0393 67.9548 46.5697C67.9548 35.1 58.5569 25.802 46.9639 25.802C35.3709 25.802 25.9729 35.1 25.9729 46.5697C25.9729 58.0393 35.3709 67.3373 46.9639 67.3373Z" fill="#D4492A"/>
</g>
<defs>
<clipPath id="clip0">
<rect width="94" height="93" fill="white"/>
</clipPath>
</defs>
</svg>
