<svg width="112" height="79" viewBox="0 0 112 79" fill="none" xmlns="http://www.w3.org/2000/svg">
<path d="M100.813 11.2737V67.7263H11.1875V11.2737H100.813ZM100.813 0H11.1875C8.22037 0 5.3748 1.18776 3.27674 3.30199C1.17868 5.41622 0 8.28373 0 11.2737L0 67.7263C0.0109972 70.7129 1.19321 73.5739 3.28889 75.6858C5.38457 77.7976 8.22376 78.9889 11.1875 79H100.813C103.78 79 106.625 77.8122 108.723 75.698C110.821 73.5838 112 70.7163 112 67.7263V11.2737C111.989 8.28714 110.807 5.42606 108.711 3.31423C106.615 1.2024 103.776 0.011082 100.813 0V0ZM50.4271 16.8264H61.6146V28.2263H50.4271V16.8264ZM50.4271 33.6528H61.6146V44.9265H50.4271V33.6528ZM33.7294 16.8264H44.9169V28.2263H33.6042L33.7294 16.8264ZM33.7294 33.6528H44.9169V44.9265H33.6042L33.7294 33.6528ZM17.0317 33.6528H28.0104V44.9265H16.6977L17.0317 33.6528ZM16.6977 16.8264H28.0104V28.2263H16.6977V16.8264ZM33.3955 50.6896H78.3958V61.9633H33.6042L33.3955 50.6896ZM66.9996 33.8632H78.1871V45.1368H67.2084L66.9996 33.8632ZM66.9996 17.0367H78.1871V28.2263H67.2084L66.9996 17.0367ZM83.6974 33.8632H94.8848V45.1368H84.0313L83.6974 33.8632ZM83.6974 17.0367H94.8848V28.2263H84.0313L83.6974 17.0367Z" fill="#D4492A"/>
</svg>
