<svg width="96" height="86" viewBox="0 0 96 86" fill="none" xmlns="http://www.w3.org/2000/svg">
<path d="M96 28.6548V19.1151H86.3821V9.53974C86.3727 7.01253 85.3601 4.5915 83.5652 2.80448C81.7702 1.01747 79.3384 0.00937749 76.8 0L9.58212 0C7.04369 0.00937749 4.6119 1.01747 2.81694 2.80448C1.02199 4.5915 0.00941916 7.01253 0 9.53974L0 76.4603C0.00941916 78.9875 1.02199 81.4085 2.81694 83.1955C4.6119 84.9825 7.04369 85.9906 9.58212 86H76.8C79.3384 85.9906 81.7702 84.9825 83.5652 83.1955C85.3601 81.4085 86.3727 78.9875 86.3821 76.4603V66.8849H96V57.3452H86.3821V47.7699H96V38.2301H86.3821V28.6548H96ZM76.8 76.4603H9.58212V9.53974H76.8V76.4603ZM19.2 47.7699H43.1911V66.8849H19.2V47.7699ZM47.9821 19.293H67.1821V33.5315H47.9821V19.293ZM19.3788 19.293H43.3698V43.178H19.2L19.3788 19.293ZM48.1609 38.4081H67.3609V66.8849H47.9821L48.1609 38.4081Z" fill="#D4492A"/>
</svg>
