<svg width="95" height="76" viewBox="0 0 95 76" fill="none" xmlns="http://www.w3.org/2000/svg">
<path d="M85.3935 0.000270605H9.50027C8.25007 -0.00920101 7.01047 0.230057 5.8536 0.704122C4.69673 1.17819 3.64569 1.87759 2.76164 2.76164C1.87759 3.64569 1.17819 4.69673 0.704122 5.8536C0.230057 7.01047 -0.00920101 8.25007 0.000270605 9.50027V66.4291C-0.00443331 67.678 0.23808 68.9154 0.713834 70.0702C1.18959 71.2249 1.88917 72.274 2.77227 73.1571C3.65536 74.0402 4.7045 74.7398 5.85922 75.2155C7.01394 75.6913 8.2514 75.9338 9.50027 75.9291H85.3935C86.6424 75.9338 87.8799 75.6913 89.0346 75.2155C90.1893 74.7398 91.2384 74.0402 92.1215 73.1571C93.0046 72.274 93.7042 71.2249 94.18 70.0702C94.6557 68.9154 94.8982 67.678 94.8935 66.4291V9.50027C94.8982 8.2514 94.6557 7.01394 94.18 5.85922C93.7042 4.7045 93.0046 3.65536 92.1215 2.77227C91.2384 1.88917 90.1893 1.18959 89.0346 0.713834C87.8799 0.23808 86.6424 -0.00443331 85.3935 0.000270605ZM85.3935 66.5003H9.50027V38.0359H85.3935V66.5003ZM85.3935 19.0003H9.50027V9.50027H85.3935V19.0003Z" fill="#D4492A"/>
</svg>
