<svg width="90" height="96" viewBox="0 0 90 96" fill="none" xmlns="http://www.w3.org/2000/svg">
<g clip-path="url(#clip0)">
<path opacity="0.3" d="M80.0366 39.3174V85.8913H34.1291L80.0366 39.3174ZM90.001 15.0195L10.3213 96.0004H90.001V15.0195Z" fill="#D4492A"/>
<path d="M70.0712 35.2724L10.3203 95.999H70.0712V35.2724ZM0 14.8016L6.44128 21.3363C14.0825 13.5868 24.4446 9.23343 35.2491 9.23343C46.0536 9.23343 56.4157 13.5868 64.0569 21.3363L70.4626 14.8016C65.8385 10.1051 60.3478 6.37866 54.304 3.8351C48.2603 1.29154 41.7818 -0.019346 35.2387 -0.0226986C28.6955 -0.0260512 22.2158 1.27819 16.1695 3.81556C10.1232 6.35293 4.62881 10.0737 0 14.7655L0 14.8016ZM25.5872 40.7963L35.1957 50.5443L44.8043 40.7963C42.2552 38.2124 38.7992 36.761 35.1957 36.761C31.5923 36.761 28.1363 38.2124 25.5872 40.7963ZM12.8114 27.7989L19.2171 34.3337C23.4671 30.0302 29.2266 27.6131 35.2313 27.6131C41.2361 27.6131 46.9955 30.0302 51.2456 34.3337L57.6157 27.7989C51.6708 21.7779 43.6138 18.3962 35.2135 18.3962C26.8133 18.3962 18.7563 21.7779 12.8114 27.7989Z" fill="#D4492A"/>
</g>
<defs>
<clipPath id="clip0">
<rect width="90" height="96" fill="white"/>
</clipPath>
</defs>
</svg>
