<svg width="94" height="85" viewBox="0 0 94 85" fill="none" xmlns="http://www.w3.org/2000/svg">
<path d="M71.7747 59.8633H70.2506C69.4532 54.9428 67.1387 50.3987 63.6341 46.8734C60.1295 43.3481 55.6121 41.0199 50.7204 40.2178V38.6846C50.7204 37.6917 50.3283 36.7395 49.6304 36.0374C48.9324 35.3353 47.9858 34.9409 46.9987 34.9409C46.0117 34.9409 45.065 35.3353 44.3671 36.0374C43.6691 36.7395 43.277 37.6917 43.277 38.6846V40.2178C38.3853 41.0199 33.868 43.3481 30.3634 46.8734C26.8588 50.3987 24.5442 54.9428 23.7468 59.8633H22.2227C21.2356 59.8633 20.289 60.2577 19.591 60.9598C18.8931 61.6619 18.501 62.6141 18.501 63.607C18.501 64.5999 18.8931 65.5522 19.591 66.2542C20.289 66.9563 21.2356 67.3507 22.2227 67.3507H71.8456C72.8327 67.3507 73.7793 66.9563 74.4773 66.2542C75.1752 65.5522 75.5673 64.5999 75.5673 63.607C75.5673 62.6141 75.1752 61.6619 74.4773 60.9598C73.7793 60.2577 72.8327 59.8633 71.8456 59.8633H71.7747ZM31.332 59.8633C32.1609 56.3095 34.1595 53.1418 37.0035 50.8744C39.8475 48.6071 43.3698 47.3733 46.9987 47.3733C50.6276 47.3733 54.15 48.6071 56.9939 50.8744C59.8379 53.1418 61.8366 56.3095 62.6654 59.8633H31.332Z" fill="#D4492A"/>
<path d="M78.19 4.52686H15.7715C9.54642 4.52686 4.5 9.60309 4.5 15.8649V69.0969C4.5 75.3587 9.54642 80.435 15.7715 80.435H78.19C84.4151 80.435 89.4615 75.3587 89.4615 69.0969V15.8649C89.4615 9.60309 84.4151 4.52686 78.19 4.52686Z" stroke="#D4492A" stroke-width="2.54" stroke-miterlimit="10"/>
<path d="M4.5 22.6746H85.8107" stroke="#D4492A" stroke-width="2.54" stroke-miterlimit="10"/>
</svg>
