<svg width="95" height="75" viewBox="0 0 95 75" fill="none" xmlns="http://www.w3.org/2000/svg">
<path d="M48.5181 67.216C48.5125 68.047 48.2724 68.8596 47.8253 69.5605C47.3782 70.2613 46.7422 70.822 45.9904 71.1782C45.3964 71.4537 44.7496 71.5972 44.0946 71.5989C43.0692 71.5926 42.0773 71.2335 41.286 70.5821L17.2376 50.6662H4.3884C3.22452 50.6662 2.10832 50.2045 1.28533 49.3825C0.462348 48.5606 2.19697e-09 47.4458 2.19697e-09 46.2834V28.7518C-3.6756e-05 27.5861 0.461187 26.4677 1.28318 25.6402C2.10517 24.8126 3.2213 24.3431 4.3884 24.3338H17.2376L41.286 4.418C41.9365 3.89046 42.7218 3.55508 43.5531 3.44975C44.3844 3.34442 45.2286 3.47333 45.9904 3.82192C46.7476 4.18063 47.3871 4.74677 47.8346 5.45442C48.2821 6.16208 48.5192 6.98214 48.5181 7.81912V67.216Z" fill="#D4492A"/>
<path d="M79.4123 75L72.5664 68.1627C80.653 60.0365 85.1919 49.0448 85.1919 37.5877C85.1919 26.1306 80.653 15.1389 72.5664 7.01262L79.4123 0C84.3441 4.92041 88.2565 10.7634 90.9258 17.1949C93.5952 23.6264 94.9691 30.5203 94.9691 37.4825C94.9691 44.4446 93.5952 51.3385 90.9258 57.77C88.2565 64.2016 84.3441 70.0445 79.4123 74.9649V75Z" fill="#D4492A"/>
<path d="M65.7907 61.3598L58.9448 54.5225C63.447 49.9909 65.9733 43.8657 65.9733 37.4818C65.9733 31.0979 63.447 24.9728 58.9448 20.4412L65.7907 13.6389C72.1129 19.9745 75.6629 28.5546 75.6629 37.4994C75.6629 46.4441 72.1129 55.0242 65.7907 61.3598Z" fill="#D4492A"/>
</svg>
