<svg width="47" height="94" viewBox="0 0 47 94" fill="none" xmlns="http://www.w3.org/2000/svg">
<path opacity="0.6" d="M40.738 9.39304H32.9104V0H14.0896V9.39304H6.26203C4.60685 9.41113 3.02457 10.0767 1.85411 11.2471C0.683647 12.4176 0.018091 13.9999 0 15.6551L0 28.2139H25.7091L28.2139 23.4826V28.2139H47V15.6551C46.9819 13.9999 46.3164 12.4176 45.1459 11.2471C43.9754 10.0767 42.3932 9.41113 40.738 9.39304Z" fill="#D4492A"/>
<path d="M28.2139 49.3315H37.607L18.7861 84.6076V58.7594H9.39304L25.7091 28.2146H0V87.7386C0.0272593 89.3845 0.697932 90.9543 1.86838 92.1117C3.03882 93.2691 4.61596 93.9222 6.26203 93.9311H40.7032C42.3672 93.9311 43.9636 93.2725 45.1434 92.0991C46.3233 90.9257 46.9908 89.3331 47 87.6691V28.2146H28.2139V49.3315Z" fill="#D4492A"/>
</svg>
