<svg width="188" height="119" viewBox="0 0 188 119" fill="none" xmlns="http://www.w3.org/2000/svg">
<path d="M59.8862 60.5796L52.1509 68.6191V90H43.8071V26.7266H52.1509V58.0156L80.2676 26.7266H90.3496L65.4487 54.6694L92.3052 90H82.3101L59.8862 60.5796ZM144.932 81.6997C142.788 84.7707 139.789 87.0739 135.936 88.6094C132.112 90.1159 127.65 90.8691 122.551 90.8691C117.394 90.8691 112.817 89.6668 108.819 87.2622C104.821 84.8286 101.721 81.381 99.519 76.9194C97.3462 72.4578 96.2308 67.2865 96.1729 61.4053V55.8862C96.1729 46.3547 98.3892 38.967 102.822 33.7231C107.283 28.4793 113.541 25.8574 121.595 25.8574C128.201 25.8574 133.517 27.5522 137.544 30.9419C141.571 34.3026 144.034 39.0828 144.932 45.2827H136.588C135.023 36.91 130.04 32.7236 121.639 32.7236C116.047 32.7236 111.803 34.6937 108.906 38.6338C106.038 42.5449 104.589 48.2233 104.56 55.6689V60.8403C104.56 67.9383 106.182 73.5877 109.427 77.7886C112.672 81.9604 117.061 84.0464 122.595 84.0464C125.724 84.0464 128.461 83.6987 130.808 83.0034C133.155 82.3081 135.096 81.1348 136.631 79.4834V65.2729H121.986V58.4937H144.932V81.6997Z" fill="#D4492A"/>
</svg>
