<svg width="102" height="65" viewBox="0 0 102 65" fill="none" xmlns="http://www.w3.org/2000/svg">
<path d="M98.2558 0.531494H3.74457C1.97368 0.531494 0.538086 1.94749 0.538086 3.6942V61.3077C0.538086 63.0544 1.97368 64.4704 3.74457 64.4704H98.2558C100.027 64.4704 101.462 63.0544 101.462 61.3077V3.6942C101.462 1.94749 100.027 0.531494 98.2558 0.531494Z" fill="white"/>
<path d="M98.2564 64.9937H3.74518C2.75367 64.9924 1.80302 64.6039 1.10117 63.9131C0.399314 63.2223 0.00339041 62.2855 0 61.3075L0 3.69404C0.00127267 2.71471 0.396261 1.77584 1.09834 1.08335C1.80042 0.390851 2.75229 0.00125529 3.74518 0L98.2564 0C99.249 0.00167352 100.2 0.391454 100.902 1.0839C101.604 1.77636 101.999 2.71498 102 3.69404V61.3075C101.997 62.2854 101.601 63.2222 100.9 63.913C100.198 64.6039 99.2478 64.9924 98.2564 64.9937ZM3.74518 1.06109C3.03747 1.06193 2.35899 1.33959 1.85856 1.83319C1.35814 2.32678 1.07663 2.996 1.07578 3.69404V61.3075C1.07705 62.0053 1.35875 62.6741 1.85913 63.1674C2.35951 63.6606 3.03775 63.9381 3.74518 63.9389H98.2564C98.9636 63.9376 99.6414 63.66 100.141 63.1668C100.641 62.6736 100.923 62.005 100.924 61.3075V3.69404C100.923 2.99627 100.642 2.32729 100.142 1.83375C99.6419 1.3402 98.9638 1.06234 98.2564 1.06109H3.74518Z" fill="#225E63"/>
<path d="M0.538086 38.3699H101.462V61.4877C101.462 61.8793 101.384 62.267 101.232 62.6288C101.08 62.9905 100.857 63.3192 100.577 63.596C100.296 63.8729 99.9624 64.0924 99.5956 64.2421C99.2287 64.3918 98.8356 64.4688 98.4386 64.4685H3.5602C2.75869 64.4685 1.99 64.1545 1.42324 63.5955C0.856486 63.0365 0.538086 62.2783 0.538086 61.4877V38.3699Z" fill="#225E63"/>
<path d="M65.5967 21.6249L66.3983 21.8605C66.3574 22.0611 66.2708 22.2498 66.145 22.4124C66.0347 22.5569 65.8876 22.6699 65.7185 22.7398C65.5123 22.8256 65.2896 22.8661 65.066 22.8584C64.7977 22.8686 64.5302 22.8239 64.2804 22.7271C64.0623 22.6197 63.8815 22.4507 63.7609 22.2417C63.6023 21.9758 63.5239 21.6707 63.5349 21.3624C63.5109 20.9577 63.6498 20.5599 63.9213 20.2555C64.1746 19.993 64.5465 19.8744 65.0131 19.8744C65.318 19.8594 65.6202 19.9373 65.8788 20.0973C66.1105 20.264 66.2751 20.5059 66.3438 20.7805L65.5421 20.9513C65.528 20.8793 65.4961 20.812 65.4492 20.7552C65.4006 20.6889 65.3369 20.6347 65.2632 20.5971C65.1884 20.561 65.1059 20.5431 65.0227 20.5449C64.9295 20.5409 64.8369 20.562 64.755 20.6061C64.6731 20.6501 64.6049 20.7153 64.5578 20.7947C64.4653 20.9683 64.4237 21.1637 64.4375 21.3593C64.4174 21.5876 64.4683 21.8165 64.5834 22.0155C64.6332 22.0757 64.6964 22.1236 64.7682 22.1554C64.84 22.1873 64.9184 22.2022 64.997 22.199C65.0682 22.204 65.1396 22.1938 65.2063 22.1689C65.273 22.1441 65.3334 22.1052 65.3834 22.0551C65.4924 21.9332 65.566 21.7846 65.5967 21.6249Z" fill="#225E63"/>
<path d="M66.7159 21.3609C66.6954 21.1594 66.7206 20.9559 66.7895 20.7652C66.8585 20.5744 66.9695 20.4011 67.1147 20.2578C67.2598 20.1146 67.4353 20.0049 67.6286 19.9366C67.822 19.8684 68.0282 19.8434 68.2326 19.8634C68.646 19.8382 69.0528 19.9752 69.3645 20.2445C69.5029 20.3895 69.6098 20.5611 69.6785 20.7485C69.7471 20.9358 69.7761 21.1351 69.7637 21.334C69.7783 21.6197 69.7187 21.9044 69.5905 22.1611C69.4761 22.3733 69.3003 22.5473 69.0855 22.6608C68.8345 22.7884 68.5549 22.8515 68.2726 22.8442C67.9894 22.8533 67.7077 22.7993 67.4486 22.6861C67.2255 22.5744 67.0401 22.4014 66.9147 22.188C66.7687 21.937 66.6997 21.6497 66.7159 21.3609ZM67.6217 21.3609C67.6031 21.5834 67.6594 21.8058 67.782 21.9934C67.8361 22.0594 67.9053 22.1117 67.9839 22.1461C68.0625 22.1805 68.1483 22.1959 68.2342 22.1911C68.319 22.1953 68.4036 22.1809 68.4821 22.1489C68.5606 22.1169 68.6308 22.0681 68.6879 22.0061C68.8128 21.8059 68.869 21.5713 68.8482 21.3372C68.8708 21.1253 68.8087 20.9131 68.6751 20.7458C68.6193 20.6827 68.5494 20.6333 68.4709 20.6014C68.3925 20.5696 68.3076 20.5562 68.2229 20.5623C68.1391 20.5589 68.0557 20.575 67.9793 20.6094C67.903 20.6437 67.836 20.6953 67.7837 20.76C67.6746 20.8612 67.6217 21.0715 67.6217 21.3609Z" fill="#225E63"/>
<path d="M70.2304 19.9165H71.4152L71.8673 21.6765L72.321 19.9165H73.5058V22.8056H72.7603V20.5917L72.1879 22.8056H71.521L70.9486 20.5917V22.8056H70.2031V19.9165H70.2304Z" fill="#225E63"/>
<path d="M74.0903 19.9162H75.5942C75.7262 19.9054 75.8591 19.9208 75.9849 19.9615C76.1108 20.0022 76.2271 20.0675 76.3269 20.1534C76.4105 20.2406 76.4749 20.3439 76.516 20.4569C76.5571 20.5698 76.5741 20.69 76.5657 20.8097C76.5724 20.9356 76.5521 21.0615 76.5063 21.1792C76.4604 21.2968 76.39 21.4037 76.2996 21.4928C76.1265 21.6636 75.8475 21.7411 75.4884 21.7411H74.9962V22.818H74.0903V19.9162ZM74.9962 21.1513H75.2222C75.3532 21.164 75.4847 21.1316 75.5942 21.0595C75.6273 21.0318 75.654 20.9974 75.6725 20.9587C75.691 20.92 75.7009 20.8778 75.7016 20.835C75.7034 20.7915 75.696 20.7482 75.68 20.7076C75.664 20.6671 75.6397 20.6302 75.6086 20.5994C75.5599 20.5623 75.5042 20.5351 75.4447 20.5194C75.3853 20.5036 75.3233 20.4996 75.2623 20.5076H75.009V21.1513H74.9962Z" fill="#225E63"/>
<path d="M77.0454 19.9165H77.9512V22.0972H79.3605V22.8056H77.0454V19.9165Z" fill="#225E63"/>
<path d="M79.8159 19.9165H80.7202V22.8056H79.8159V19.9165Z" fill="#225E63"/>
<path d="M83.1698 22.3198H82.1453L81.9978 22.7942H81.0791L82.1854 19.905H83.1698L84.2744 22.7942H83.3301L83.1698 22.3198ZM82.9838 21.7014L82.6631 20.6657L82.3425 21.7014H82.9838Z" fill="#225E63"/>
<path d="M84.5552 19.9165H85.3937L86.4983 21.5184V19.9165H87.3496V22.8056H86.4983L85.4065 21.2164V22.8056H84.5552V19.9165Z" fill="#225E63"/>
<path d="M87.748 19.9165H90.504V20.6265H89.5854V22.8056H88.6811V20.6265H87.7625V19.9165H87.748Z" fill="#225E63"/>
<path d="M54.7076 24.3149L57.3305 23.5005L56.4776 21.636C55.8209 22.4843 55.2292 23.3797 54.7076 24.3149ZM53.8162 15.7929L48.6778 4.50049L11.0625 6.60053L21.4836 34.649L41.5466 28.4121C40.264 26.5999 39.8023 24.4461 41.2805 23.3961C42.9302 22.2132 45.42 23.5795 47.004 25.5104C48.5303 22.9881 52.8302 17.1197 53.8162 15.7929Z" fill="#225E63"/>
<path d="M47.5046 12.6603C49.0758 12.6603 50.3536 11.479 50.3536 10.0084C50.3536 8.53772 49.071 7.35645 47.5046 7.35645C45.9382 7.35645 44.6572 8.5393 44.6572 10.0084C44.6572 11.4775 45.935 12.6603 47.5046 12.6603ZM45.1751 13.8036H49.8357V25.8219H45.1751V13.8036Z" fill="#FEFEFE"/>
<path d="M42.8728 17.3096C42.9129 17.3222 42.9386 17.3096 42.9386 17.2701V14.2323C42.9371 14.2107 42.9303 14.1898 42.9189 14.1714C42.9074 14.1529 42.8916 14.1375 42.8728 14.1263C42.8728 14.1263 42.2604 13.7326 40.3958 13.6282C40.3028 13.5744 38.6659 13.5618 38.2266 13.6282C31.4369 14.1659 31.1836 19.0048 31.1836 19.2215V20.3996C31.1836 20.545 31.1836 25.4947 38.2266 25.9343C38.9192 25.9865 40.2628 25.9343 40.3958 25.9343C41.3331 25.9445 42.2638 25.7798 43.139 25.4488C43.1583 25.4422 43.175 25.4298 43.1868 25.4134C43.1986 25.3969 43.2048 25.3773 43.2047 25.3571V22.5107C43.2047 22.4711 43.1791 22.4585 43.1518 22.4838C43.1518 22.4838 42.6468 22.8775 40.4359 23.1005C40.0522 23.1573 39.6621 23.1573 39.2784 23.1005C36.136 22.5755 35.9901 20.3173 35.9901 20.3173C35.9901 20.2778 35.9773 20.213 35.9773 20.1861V19.3195C35.9745 19.2754 35.9789 19.2311 35.9901 19.1882C35.9901 19.1882 36.2033 16.7593 39.2784 16.4999H40.4359C41.2922 16.6178 42.1187 16.8924 42.8728 17.3096Z" fill="#FEFEFE"/>
<path d="M18.2437 25.776C18.2433 25.7848 18.2447 25.7936 18.2479 25.8018C18.2512 25.8099 18.2561 25.8174 18.2625 25.8235C18.2689 25.8296 18.2765 25.8344 18.2849 25.8374C18.2933 25.8404 18.3022 25.8415 18.3111 25.8409H22.8499C22.8588 25.8415 22.8677 25.8404 22.8761 25.8374C22.8844 25.8344 22.8921 25.8296 22.8984 25.8235C22.9048 25.8174 22.9098 25.8099 22.913 25.8018C22.9163 25.7936 22.9177 25.7848 22.9172 25.776V22.286C22.9165 22.2772 22.9177 22.2684 22.9207 22.2601C22.9238 22.2519 22.9286 22.2443 22.9348 22.2381C22.941 22.2318 22.9485 22.2269 22.9568 22.2237C22.9651 22.2205 22.974 22.2191 22.9829 22.2196C22.9829 22.2196 30.2392 22.7319 30.2392 17.9388C30.2392 14.1436 25.686 13.7372 24.195 13.8036H18.3111C18.3022 13.8029 18.2933 13.8041 18.2849 13.8071C18.2765 13.8101 18.2689 13.8148 18.2625 13.8209C18.2561 13.8271 18.2512 13.8345 18.2479 13.8427C18.2447 13.8509 18.2433 13.8596 18.2437 13.8684V25.776ZM22.837 19.5518V16.416H23.9593C23.9593 16.416 25.5626 16.4824 25.702 17.572C25.7294 17.7856 25.7294 18.0019 25.702 18.2156C25.4888 19.4806 24.0988 19.555 24.0988 19.555L22.837 19.5518Z" fill="#FEFEFE"/>
<path d="M47.6392 31.616C48.0325 31.6398 48.4257 31.5676 48.7839 31.4057C50.4353 30.5517 56.013 17.1197 61.8969 12.9829C61.9387 12.9546 61.9746 12.9186 62.0027 12.8769C62.0264 12.8469 62.0403 12.8105 62.0428 12.7726C62.0428 12.7726 62.046 12.4927 61.1786 12.4927C55.9456 12.3472 50.501 23.181 47.6392 27.4618C47.5992 27.514 47.4132 27.4618 47.4132 27.4618C47.4132 27.4618 45.4893 25.2289 43.8315 24.375C43.6947 24.3274 43.5501 24.3054 43.4051 24.3101C43.272 24.3101 42.5008 24.4683 42.1417 24.8351C41.7152 25.2811 41.7281 25.5309 41.7281 26.0702C41.7355 26.1795 41.7627 26.2866 41.8082 26.3864C42.2203 27.0949 44.072 29.6172 45.6015 31.0087C45.8292 31.1827 46.1883 31.616 47.6392 31.616Z" fill="#2BBC5D"/>
<path d="M63.4404 8.92505H67.7932C68.659 8.92505 69.3516 9.04365 69.8775 9.26662C70.3885 9.48411 70.8373 9.82248 71.1841 10.2518C71.5356 10.6937 71.7896 11.2033 71.9296 11.7478C72.0921 12.3384 72.1725 12.948 72.1685 13.56C72.1685 14.5578 72.0483 15.3327 71.8222 15.8846C71.6101 16.413 71.2815 16.8884 70.8602 17.2762C70.4857 17.623 70.0346 17.8791 69.5424 18.0242C68.9746 18.1827 68.3881 18.2667 67.798 18.274H63.4404V8.92505ZM66.3744 11.0393V16.1471H67.0926C67.7051 16.1471 68.1443 16.0823 68.3977 15.951C68.6761 15.7938 68.8921 15.5479 69.0101 15.2536C69.156 14.9263 69.2362 14.3744 69.2362 13.6264C69.2362 12.6286 69.0758 11.9581 68.744 11.5912C68.4121 11.2243 67.8782 11.0393 67.1071 11.0393H66.3744Z" fill="#225E63"/>
<path d="M72.9736 15.1887L75.7681 15.0227C75.8034 15.3898 75.9319 15.7422 76.1417 16.0474C76.2972 16.2351 76.4958 16.3835 76.7211 16.4803C76.9464 16.5771 77.1918 16.6195 77.4371 16.604C77.7859 16.628 78.1315 16.525 78.4086 16.3146C78.5106 16.2357 78.5939 16.1358 78.6529 16.022C78.7119 15.9081 78.745 15.783 78.7501 15.6552C78.7466 15.5295 78.7163 15.4059 78.661 15.2925C78.6058 15.1792 78.5269 15.0786 78.4295 14.9974C78.2162 14.8013 77.7112 14.6305 76.9256 14.4597C75.6334 14.1703 74.7292 13.7892 74.1697 13.318C73.9016 13.0975 73.6879 12.8198 73.5449 12.5058C73.4018 12.1918 73.3331 11.8498 73.344 11.5057C73.3473 11.0189 73.4956 10.5438 73.7704 10.1394C74.0844 9.68234 74.5317 9.32999 75.053 9.12895C75.6254 8.8791 76.3982 8.7605 77.3826 8.7605C78.5946 8.7605 79.5261 8.98347 80.1514 9.43099C80.7766 9.87852 81.163 10.5854 81.2833 11.5579L78.5112 11.7018C78.4311 11.2828 78.2852 10.9807 78.0447 10.7831C77.766 10.576 77.4214 10.4739 77.0731 10.4952C76.7986 10.4727 76.5249 10.5466 76.3004 10.704C76.2201 10.7667 76.1556 10.8468 76.1119 10.9382C76.0682 11.0295 76.0466 11.1296 76.0487 11.2306C76.0504 11.3099 76.0706 11.3877 76.1075 11.4581C76.1445 11.5286 76.1973 11.5898 76.2619 11.637C76.395 11.7556 76.7268 11.8726 77.2463 11.9786C78.5246 12.2579 79.4433 12.5347 80.0023 12.8088C80.497 13.0348 80.9167 13.3945 81.2127 13.8461C81.4665 14.2665 81.5959 14.7486 81.5863 15.2377C81.5888 15.8266 81.4123 16.4028 81.0796 16.8918C80.7368 17.4074 80.2455 17.8099 79.6688 18.0478C79.0708 18.3103 78.298 18.4416 77.3794 18.4416C75.7681 18.4416 74.6538 18.1395 74.0254 17.5228C73.4074 16.891 73.035 16.0645 72.9736 15.1887Z" fill="#225E63"/>
<path d="M82.3311 15.1888L85.1319 15.0228C85.166 15.3899 85.294 15.7425 85.5039 16.0475C85.6584 16.236 85.8562 16.3855 86.0809 16.4836C86.3056 16.5818 86.5507 16.6258 86.7961 16.612C87.1449 16.6357 87.4904 16.5328 87.7677 16.3227C87.8729 16.2469 87.9589 16.1481 88.0189 16.0341C88.079 15.9202 88.1116 15.794 88.1141 15.6655C88.1166 15.5371 88.0889 15.4098 88.0333 15.2936C87.9776 15.1775 87.8955 15.0756 87.7933 14.9959C87.5817 14.7998 87.0751 14.629 86.2895 14.4582C84.9988 14.1688 84.093 13.7877 83.5335 13.3165C83.2679 13.094 83.0561 12.8158 82.9132 12.5023C82.7704 12.1888 82.7002 11.8479 82.7078 11.5043C82.7118 11.0176 82.8601 10.5426 83.1343 10.138C83.4486 9.68122 83.8958 9.32896 84.4169 9.12749C84.9892 8.87764 85.762 8.75903 86.7464 8.75903C87.9584 8.75903 88.8899 8.982 89.5168 9.42953C90.1437 9.87705 90.5285 10.5839 90.6471 11.5564L87.8783 11.7146C87.7981 11.2955 87.6522 10.9935 87.4133 10.7958C87.134 10.5887 86.7889 10.4867 86.4402 10.508C86.1662 10.4857 85.8931 10.5596 85.669 10.7167C85.5885 10.7793 85.5238 10.8594 85.4798 10.9508C85.4359 11.0421 85.4139 11.1423 85.4157 11.2433C85.4169 11.3202 85.4351 11.3959 85.4692 11.465C85.5033 11.5341 85.5523 11.595 85.6129 11.6434C85.746 11.762 86.0794 11.879 86.5973 11.985C87.8799 12.2602 88.7985 12.5358 89.3533 12.812C89.8484 13.0382 90.2685 13.3978 90.5653 13.8494C90.8186 14.2699 90.9474 14.752 90.9373 15.241C90.9397 15.8297 90.7638 16.4056 90.4323 16.8951C90.0887 17.41 89.5976 17.8124 89.0214 18.0511C88.4218 18.3136 87.649 18.4448 86.7304 18.4448C85.1271 18.4448 84.0048 18.1428 83.3764 17.5261C82.7503 16.899 82.3785 16.0677 82.3311 15.1888Z" fill="#225E63"/>
<path d="M5.58124 44.8457V48.565H7.08828V49.6151H4.3291V44.8457H5.58124Z" fill="white"/>
<path d="M10.4881 45.8957H8.99229V46.6864H10.4031V47.7364H8.99229V48.5587H10.4881V49.6087H7.73535V44.8457H10.4881V45.8957Z" fill="white"/>
<path d="M12.2502 44.8457L13.4174 47.757L14.5894 44.8457H15.9553L13.9176 49.6151H12.9172L10.8843 44.8457H12.2502Z" fill="white"/>
<path d="M19.2145 45.8957H17.7203V46.6864H19.1312V47.7364H17.7203V48.5587H19.2145V49.6087H16.4634V44.8457H19.2145V45.8957Z" fill="white"/>
<path d="M21.3761 44.8457V48.565H22.8831V49.6151H20.1191V44.8457H21.3761Z" fill="white"/>
<path d="M26.9042 45.8957H26.1987V44.8457H28.1611V49.6151H26.9042V45.8957Z" fill="white"/>
<path d="M8.30946 53.646C8.12775 53.5053 7.92562 53.3922 7.70985 53.3108C7.52393 53.2407 7.32688 53.2038 7.12787 53.2016C6.92239 53.1931 6.71937 53.2484 6.54749 53.3598C6.47755 53.4033 6.42014 53.4638 6.38083 53.5355C6.34151 53.6073 6.32161 53.6878 6.32304 53.7693C6.32109 53.8221 6.33004 53.8746 6.34933 53.9238C6.36862 53.973 6.39786 54.0179 6.43527 54.0556C6.52173 54.1379 6.62281 54.2038 6.73347 54.2501C6.86661 54.309 7.00441 54.3572 7.1455 54.394C7.30583 54.4335 7.45012 54.4778 7.60083 54.5237C8.20044 54.7103 8.63919 54.958 8.91709 55.2669C9.20494 55.6062 9.35364 56.0394 9.33393 56.4814C9.33847 56.7948 9.27621 57.1057 9.15116 57.3938C9.0307 57.665 8.84792 57.9048 8.61728 58.0944C8.36251 58.2993 8.06947 58.4529 7.75474 58.5466C7.37951 58.6581 6.98901 58.7114 6.59719 58.7048C5.71313 58.7076 4.84836 58.4499 4.11377 57.9647L4.90096 56.5905C5.14555 56.7984 5.4207 56.9685 5.71701 57.0949C5.97018 57.2029 6.24283 57.2594 6.51864 57.261C6.75808 57.2787 6.99599 57.2108 7.18879 57.0696C7.29117 56.9892 7.36281 56.8769 7.39194 56.751C7.42107 56.6252 7.40597 56.4933 7.34912 56.377C7.30322 56.2971 7.23898 56.2288 7.16154 56.1778C7.05495 56.1081 6.94031 56.0513 6.82005 56.0085C6.67896 55.9564 6.50902 55.8979 6.30861 55.8346C6.07133 55.765 5.83886 55.6875 5.6096 55.6037C5.39043 55.5242 5.18536 55.4111 5.00197 55.2685C4.82059 55.1265 4.67331 54.9466 4.57069 54.7419C4.45321 54.4905 4.39825 54.2151 4.41037 53.9386C4.40609 53.6353 4.46503 53.3344 4.58352 53.0546C4.69393 52.7977 4.85779 52.5666 5.06449 52.3762C5.28834 52.1803 5.55014 52.0313 5.83405 51.9381C6.16142 51.8293 6.50508 51.7759 6.85051 51.78C7.22013 51.7822 7.58821 51.8273 7.94713 51.9144C8.32701 52.0037 8.69503 52.1364 9.04375 52.3098L8.30946 53.646Z" fill="white"/>
<path d="M14.5048 53.4101H12.3212V54.506H14.383V55.9497H12.3212V57.0867H14.5048V58.5305H10.4839V51.9663H14.5048V53.4101Z" fill="white"/>
<path d="M21.7032 58.5245H19.4153L17.663 56.0022V58.5245H15.8257V51.9666H18.6843C19.0347 51.9586 19.3838 52.0121 19.7152 52.1247C19.9864 52.2182 20.2341 52.3682 20.4414 52.5644C20.6301 52.7461 20.7771 52.9656 20.8727 53.208C20.9713 53.4574 21.0208 53.723 21.0186 53.9907C21.0389 54.4279 20.9008 54.8578 20.629 55.2036C20.3302 55.5368 19.9254 55.7599 19.4811 55.8362L21.7032 58.5245ZM17.663 54.8984H18.0093C18.303 54.9168 18.5952 54.8438 18.8446 54.6897C18.9353 54.6174 19.0085 54.5259 19.0588 54.4221C19.109 54.3183 19.1351 54.2046 19.1351 54.0896C19.1351 53.9745 19.109 53.8609 19.0588 53.7571C19.0085 53.6532 18.9353 53.5618 18.8446 53.4895C18.5952 53.3354 18.303 53.2624 18.0093 53.2807H17.663V54.8984Z" fill="white"/>
<path d="M23.4555 51.9663L25.1614 55.9592L26.8768 51.9663H28.8729L25.8924 58.5242H24.4303L21.4595 51.9663H23.4555Z" fill="white"/>
<path d="M31.4491 51.9663V58.5242H29.6118V51.9663H31.4491Z" fill="white"/>
<path d="M38.0197 54.1582C37.8287 53.9293 37.5882 53.7457 37.3156 53.6209C37.0431 53.4961 36.7457 53.4333 36.4453 53.4371C36.1836 53.4344 35.924 53.4816 35.6805 53.5762C35.4562 53.6625 35.2509 53.7908 35.0761 53.9542C34.9063 54.1158 34.7711 54.3094 34.6785 54.5235C34.5809 54.7488 34.5312 54.9916 34.5326 55.2367C34.5306 55.4849 34.5802 55.7308 34.6785 55.9593C34.7723 56.1753 34.9091 56.3705 35.0809 56.5334C35.2562 56.6972 35.4613 56.827 35.6853 56.9161C35.924 57.0096 36.1788 57.0569 36.4356 57.0552C36.7338 57.0519 37.0282 56.9884 37.3006 56.8688C37.573 56.7491 37.8177 56.5758 38.0197 56.3594V58.3772L37.8321 58.4373C37.5752 58.5245 37.312 58.5926 37.0449 58.6413C36.8069 58.6851 36.5655 58.7073 36.3234 58.7077C35.8441 58.7094 35.3687 58.622 34.9222 58.45C34.4857 58.2854 34.0847 58.0407 33.7406 57.7289C33.3977 57.4154 33.1195 57.0395 32.9213 56.6219C32.719 56.1854 32.6143 55.7111 32.6143 55.2311C32.6143 54.7512 32.719 54.2768 32.9213 53.8403C33.1178 53.428 33.3951 53.0582 33.7374 52.7524C34.0835 52.4435 34.4854 52.2016 34.9222 52.0392C35.3739 51.8681 35.854 51.7812 36.3379 51.783C36.6163 51.7825 36.894 51.81 37.1667 51.8652C37.4594 51.9266 37.7464 52.0123 38.0245 52.1214L38.0197 54.1582Z" fill="white"/>
<path d="M43.2026 53.4101H41.019V54.506H43.0807V55.9497H41.019V57.0867H43.2026V58.5305H39.1816V51.9663H43.2026V53.4101Z" fill="white"/>
<path d="M49.5399 58.5242H47.709V51.9663H50.6333C51.4274 51.9663 52.0351 52.1577 52.4562 52.5403C52.8773 52.923 53.0884 53.4623 53.0895 54.1581C53.0895 54.8539 52.8784 55.3931 52.4562 55.7758C52.034 56.1585 51.4264 56.3498 50.6333 56.3498H49.5399V58.5242ZM49.5399 54.9756H50.1491C50.8246 54.9756 51.1624 54.7031 51.1624 54.1581C51.1624 53.6141 50.8241 53.3405 50.1491 53.3405H49.5399V54.9756Z" fill="white"/>
<path d="M59.9403 58.5242H57.6541L55.9018 56.002V58.5242H54.0645V51.9663H56.923C57.2735 51.9584 57.6225 52.012 57.9539 52.1245C58.2252 52.218 58.4729 52.3679 58.6802 52.5641C58.8684 52.7462 59.0153 52.9656 59.1115 53.2077C59.2093 53.4573 59.2588 53.7228 59.2574 53.9905C59.2777 54.4276 59.1396 54.8575 58.8678 55.2034C58.5687 55.5362 58.164 55.7592 57.7199 55.8359L59.9403 58.5242ZM55.9018 54.8982H56.2481C56.5413 54.9165 56.8329 54.8435 57.0818 54.6894C57.1727 54.6173 57.2462 54.5259 57.2966 54.422C57.347 54.3182 57.3732 54.2045 57.3732 54.0893C57.3732 53.9741 57.347 53.8604 57.2966 53.7566C57.2462 53.6527 57.1727 53.5614 57.0818 53.4892C56.8329 53.3351 56.5413 53.2621 56.2481 53.2804H55.9018V54.8982Z" fill="white"/>
<path d="M60.2589 55.2465C60.2548 54.7773 60.3538 54.3128 60.5491 53.8849C60.7382 53.4665 61.0108 53.0901 61.3507 52.778C61.7088 52.4558 62.1278 52.2065 62.5836 52.0442C63.6042 51.69 64.7167 51.69 65.7372 52.0442C66.1955 52.2065 66.617 52.4558 66.9781 52.778C67.3227 53.0881 67.5988 53.4649 67.7894 53.8849C67.9807 54.3137 68.0796 54.7771 68.0796 55.2457C68.0796 55.7142 67.9807 56.1776 67.7894 56.6064C67.5988 57.0264 67.3227 57.4032 66.9781 57.7134C66.6167 58.0355 66.1953 58.2852 65.7372 58.4487C64.7167 58.8029 63.6042 58.8029 62.5836 58.4487C62.128 58.2852 61.7092 58.0354 61.3507 57.7134C61.0108 57.4013 60.7382 57.0248 60.5491 56.6064C60.3537 56.1792 60.2546 55.7152 60.2589 55.2465ZM62.1828 55.2465C62.1807 55.4956 62.2355 55.7421 62.3431 55.9676C62.4466 56.1854 62.5932 56.3806 62.7744 56.5416C62.9582 56.7066 63.1728 56.835 63.4061 56.9195C63.8988 57.1009 64.4413 57.1009 64.934 56.9195C65.17 56.8345 65.3876 56.7063 65.5753 56.5416C65.7584 56.3812 65.9068 56.186 66.0114 55.9676C66.1162 55.7409 66.1704 55.4948 66.1704 55.2457C66.1704 54.9966 66.1162 54.7504 66.0114 54.5238C65.9059 54.3059 65.7577 54.1108 65.5753 53.9497C65.3868 53.7861 65.1694 53.658 64.934 53.5718C64.4409 53.3926 63.8992 53.3926 63.4061 53.5718C63.1734 53.6577 62.9591 53.7859 62.7744 53.9497C62.5939 54.1114 62.4474 54.3064 62.3431 54.5238C62.2346 54.7496 62.1787 54.9965 62.1796 55.2465H62.1828Z" fill="white"/>
<path d="M70.1757 51.9663L71.8816 55.9592L73.5971 51.9663H75.5931L72.6127 58.5242H71.1505L68.1797 51.9663H70.1757Z" fill="white"/>
<path d="M78.1692 51.9663V58.5242H76.3335V51.9663H78.1692Z" fill="white"/>
<path d="M79.6509 51.9664H82.3684C82.8341 51.9631 83.2954 52.0552 83.7231 52.2368C84.1324 52.4083 84.5071 52.6509 84.8294 52.9532C85.1434 53.2504 85.396 53.6048 85.5733 53.9969C85.7513 54.388 85.8434 54.8119 85.8434 55.2406C85.8434 55.6693 85.7513 56.0932 85.5733 56.4843C85.3985 56.878 85.1474 57.2341 84.8342 57.5328C84.5131 57.838 84.1382 58.0829 83.7279 58.2554C83.2966 58.4363 82.8322 58.5278 82.3636 58.5243H79.6509V51.9664ZM81.4882 57.0868H81.9099C82.2003 57.0916 82.4893 57.0445 82.7628 56.9477C82.9979 56.8646 83.213 56.7343 83.3945 56.565C83.5673 56.4029 83.702 56.2053 83.7889 55.9862C83.8812 55.7524 83.9274 55.5034 83.9251 55.2524C83.9267 55.0022 83.8788 54.754 83.784 54.5219C83.6943 54.3021 83.5589 54.1033 83.3864 53.9383C83.201 53.7695 82.9828 53.6393 82.7451 53.5557C82.4747 53.46 82.1891 53.4128 81.9018 53.4165H81.4802L81.4882 57.0868Z" fill="white"/>
<path d="M91.0385 53.4101H88.8549V54.506H90.9167V55.9497H88.8549V57.0867H91.0385V58.5305H87.0176V51.9663H91.0385V53.4101Z" fill="white"/>
<path d="M98.2353 58.5242H95.949L94.1967 56.002V58.5242H92.3594V51.9663H95.2179C95.5684 51.9584 95.9174 52.012 96.2488 52.1245C96.5201 52.218 96.7678 52.3679 96.9751 52.5641C97.1633 52.7462 97.3102 52.9656 97.4064 53.2077C97.5037 53.4574 97.5527 53.7229 97.5507 53.9905C97.5707 54.4273 97.4333 54.857 97.1627 55.2034C96.8636 55.5362 96.4589 55.7592 96.0148 55.8359L98.2353 58.5242ZM94.1967 54.8982H94.543C94.8362 54.9165 95.1278 54.8435 95.3767 54.6894C95.4674 54.6171 95.5406 54.5257 95.5908 54.4218C95.6411 54.318 95.6672 54.2044 95.6672 54.0893C95.6672 53.9742 95.6411 53.8606 95.5908 53.7568C95.5406 53.653 95.4674 53.5615 95.3767 53.4892C95.1278 53.3351 94.8362 53.2621 94.543 53.2804H94.1967V54.8982Z" fill="white"/>
</svg>
