<svg width="129" height="39" viewBox="0 0 129 39" fill="none" xmlns="http://www.w3.org/2000/svg">
<g clip-path="url(#clip0)">
<path d="M0.045616 0H29.325C29.373 0.106924 29.2994 0.176344 29.245 0.245765C29.1601 0.348699 29.0617 0.438068 28.9673 0.532224L0.592969 28.788C0.479997 28.9191 0.350641 29.0352 0.208061 29.1335C0.038414 29.2316 -0.00319765 29.1399 0.00720525 28.9851C0.00720525 26.9041 0.00720525 24.8244 0.00720525 22.746C0.0176082 22.4739 0.230468 22.3343 0.396914 22.1683C6.14358 16.4423 11.8913 10.7168 17.6401 4.9919C17.7434 4.88976 17.8498 4.79162 17.9602 4.66554C17.989 4.65517 17.9074 4.59213 17.9402 4.63362C17.9522 4.64799 17.9402 4.65437 17.9218 4.66793C17.7898 4.7605 17.6393 4.72539 17.4969 4.72539C11.859 4.72539 6.22147 4.72539 0.584166 4.72539C0.384911 4.72539 0.112835 4.83949 0.00960592 4.5251C0.00960592 3.16063 0.00960592 1.79696 0.00960592 0.43328C0.00960592 0.285662 -0.0280046 0.137245 0.045616 0Z" fill="#606060"/>
<path d="M39.0043 0C39.0083 1.03732 39.0043 2.06985 39.0219 3.10398C39.0259 3.3258 38.897 3.43911 38.7666 3.56918C37.0493 5.27144 35.3321 6.9761 33.6148 8.68316C29.3266 12.9516 25.0396 17.2206 20.7536 21.4901C16.0403 26.1798 11.3272 30.8682 6.61444 35.5553C5.52027 36.641 4.42423 37.7265 3.32632 38.8117C2.30364 38.8707 1.27935 38.8165 0.255866 38.8412C-0.0210115 38.8484 0.00619604 38.6816 0.00699626 38.5029V35.7205C-0.0410171 35.4125 0.167041 35.2361 0.357494 35.0478L8.41574 27.023C10.2066 25.2396 11.9799 23.4378 13.7916 21.6768C21.0273 14.635 28.1092 7.44077 35.2896 0.339921C35.4169 0.205943 35.5634 0.0914048 35.7242 0L39.0043 0Z" fill="#606060"/>
<path d="M123.811 38.9505C123.811 38.818 123.802 38.6856 123.802 38.5515C123.802 25.9473 123.798 13.3433 123.792 0.739637C123.792 0.346254 123.872 0.232149 124.286 0.238532C125.857 0.26247 127.429 0.238532 129.001 0.238532V38.9585C128.921 39.0159 128.821 38.9968 128.731 38.9968C127.179 38.9968 125.628 38.9968 124.078 38.9968C123.987 38.996 123.89 39.0191 123.811 38.9505Z" fill="#606060"/>
<path d="M73.1591 38.9562L67.9728 38.9506C67.9728 38.791 67.9632 38.6314 67.9632 38.4718C67.9632 30.4419 67.9651 22.4122 67.9688 14.3829C67.9688 14.0725 67.9008 13.869 67.6103 13.7174C67.2278 13.5187 66.8701 13.2713 66.4428 13.0088V13.5466C66.4428 21.8548 66.4428 30.1631 66.4428 38.4718C66.4428 38.6314 66.4364 38.791 66.4332 38.9506L61.2461 38.9562C61.2413 38.8101 61.2317 38.6649 61.2317 38.5189C61.2317 28.3085 61.2277 18.0978 61.2197 7.88685C61.2197 7.46953 61.3382 7.39533 61.7255 7.40011C63.4716 7.42166 65.2185 7.41288 66.9645 7.4049C67.1895 7.39971 67.4106 7.46318 67.5983 7.58683C68.4938 8.16135 69.4004 8.7191 70.2935 9.29761C70.4879 9.42288 70.6272 9.42288 70.824 9.29761C71.7443 8.71192 72.6765 8.14539 73.6008 7.56529C73.7539 7.46135 73.9349 7.40575 74.1201 7.4057C75.9463 7.41208 77.7726 7.41208 79.5993 7.4057C79.8257 7.4057 79.9578 7.41448 79.957 7.7137C79.9468 18.1108 79.9418 28.5074 79.9418 38.9035C79.9426 38.9168 79.9426 38.9301 79.9418 38.9434C78.3018 38.9482 76.6625 38.954 75.0236 38.9609C74.8403 38.9609 74.7483 38.9059 74.7635 38.712C74.7715 38.6059 74.7635 38.4989 74.7635 38.3928C74.7635 30.0826 74.7635 21.772 74.7635 13.4612C74.7635 13.3296 74.7539 13.1987 74.7467 13.0671C74.7467 13.0599 74.7307 13.0479 74.7227 13.0471C74.7095 13.0495 74.6968 13.0541 74.6851 13.0607C74.197 13.2753 73.784 13.6192 73.3199 13.8706C73.1335 13.9727 73.1783 14.1363 73.1783 14.2879C73.1783 16.0785 73.1783 17.8691 73.1783 19.6596C73.1783 25.933 73.1783 32.2064 73.1783 38.4798C73.1743 38.6386 73.1647 38.7974 73.1591 38.9562Z" fill="#606060"/>
<path d="M57.781 38.9435C56.6903 38.9483 55.6004 38.9578 54.5105 38.9578C51.691 38.9578 48.8721 38.9554 46.0537 38.9507C46.3562 37.1338 46.6547 35.316 46.9604 33.4999C47.5589 29.9449 48.1591 26.3906 48.7609 22.8371C49.3866 19.1251 50.0111 15.4134 50.6342 11.7019C50.9671 9.72858 51.2936 7.75448 51.6489 5.78517C51.7209 5.3862 51.5921 5.33992 51.2416 5.34312C49.6691 5.35987 48.0959 5.34312 46.5202 5.35668C46.2306 5.35668 46.1073 5.31439 46.1121 4.97766C46.1329 3.49137 46.1329 2.00454 46.1121 0.517188C46.1121 0.207589 46.2034 0.152531 46.4914 0.153329C50.1725 0.162904 53.8514 0.162904 57.5281 0.153329C57.889 0.153329 57.9018 0.277807 57.8482 0.56666C57.184 4.43293 56.5246 8.29974 55.8701 12.1671C55.2555 15.8121 54.6372 19.4565 54.0151 23.1004C53.423 26.5757 52.8279 30.0505 52.2298 33.5247C52.1714 33.8622 52.3683 33.7912 52.5419 33.792C54.1552 33.792 55.7684 33.8024 57.3809 33.7848C57.7178 33.7848 57.801 33.8766 57.797 34.2045C57.7762 35.7844 57.7842 37.3636 57.781 38.9435Z" fill="#606060"/>
<path d="M120.338 38.9433C119.248 38.948 118.159 38.9584 117.069 38.9576C114.251 38.9576 111.434 38.9539 108.617 38.9464C109.16 35.7185 109.702 32.4909 110.244 29.2635C110.844 25.6956 111.444 22.1283 112.045 18.5615C112.644 15.0075 113.245 11.4535 113.847 7.89949C113.972 7.15422 114.073 6.40495 114.227 5.66527C114.291 5.35487 114.17 5.34609 113.933 5.34609C112.307 5.35168 110.681 5.34609 109.052 5.35567C108.764 5.35567 108.666 5.3022 108.669 4.99021C108.688 3.50445 108.685 2.01709 108.669 0.530537C108.669 0.248865 108.716 0.148325 109.032 0.149921C112.737 0.162156 116.442 0.162156 120.147 0.149921C120.422 0.149921 120.475 0.224129 120.431 0.478671C119.798 4.14918 119.169 7.8197 118.545 11.4902C117.895 15.3054 117.247 19.1201 116.601 22.9342C116.005 26.4452 115.416 29.9641 114.805 33.4758C114.751 33.7902 114.861 33.795 115.097 33.795C116.723 33.7886 118.348 33.795 119.974 33.7902C120.184 33.7902 120.353 33.767 120.349 34.0846C120.336 35.7044 120.341 37.3242 120.338 38.9433Z" fill="#606060"/>
<path d="M20.9863 34.2124H23.2133C28.3347 34.2124 33.454 34.2095 38.5712 34.2036C38.9473 34.2036 39.0321 34.3113 39.0257 34.6672C39.0041 35.9016 39.0017 37.1408 39.0257 38.3713C39.0337 38.7511 38.9409 38.8548 38.5456 38.854C29.5607 38.8418 20.5758 38.8388 11.5909 38.8452H9.86719L38.9497 9.73486C39.0553 9.88089 39.0153 10.0022 39.0153 10.1139C39.0153 12.0289 39.0153 13.9376 39.0225 15.8495C39.028 15.9597 39.009 16.0699 38.9668 16.172C38.9246 16.274 38.8603 16.3656 38.7785 16.4399C35.6138 19.5785 32.4522 22.7186 29.2934 25.8604C26.6121 28.5202 23.9276 31.1784 21.24 33.835C21.1463 33.9275 21.0399 34.0073 20.9391 34.0935L20.9863 34.2124Z" fill="#606060"/>
<path d="M104.819 38.9434L99.6447 38.9561C99.6391 38.8101 99.6295 38.6649 99.6295 38.5189C99.6295 25.9322 99.6295 13.3453 99.6295 0.75806C99.6295 0.180353 99.5607 0.253763 100.141 0.252168C101.581 0.252168 103.022 0.252168 104.462 0.246582C104.719 0.246582 104.837 0.282489 104.837 0.584908C104.829 13.345 104.826 26.1048 104.828 38.8644C104.829 38.8907 104.821 38.917 104.819 38.9434Z" fill="#606060"/>
<path d="M39.017 22.7803V23.9197C39.017 25.7095 39.017 27.4985 39.017 29.2882C39.017 29.5101 39.017 29.6473 38.7113 29.6449C36.5419 29.6266 34.3725 29.629 32.2023 29.6234C32.1671 29.6234 32.1319 29.6098 32.1527 29.6146L39.017 22.7803Z" fill="#606060"/>
<path d="M0.120501 16.1637C-0.0107356 16.0791 0.0484809 15.9467 0.0484809 15.8374C0.0484809 13.7524 0.0484809 11.6681 0.0428794 9.58393C0.0428794 9.3613 0.0428794 9.21687 0.349365 9.21927C2.49556 9.23682 4.64176 9.23602 6.78876 9.24241C6.86398 9.24241 6.9488 9.22246 6.99602 9.31662L0.120501 16.1637Z" fill="#606060"/>
<path d="M95.4266 16.2078C94.9665 15.9756 94.5232 15.709 94.0534 15.4457C94.568 14.8074 95.0513 14.1938 95.5531 13.5937C95.7008 13.4242 95.7788 13.2053 95.7715 12.9809C95.7657 8.87949 95.7673 4.77783 95.7763 0.675897C95.7763 0.314431 95.6691 0.242617 95.3266 0.243415C91.6456 0.256182 87.9693 0.250596 84.2907 0.252192C83.7233 0.252192 83.7906 0.180378 83.7906 0.769256C83.7906 13.3522 83.7906 25.9354 83.7906 38.5189C83.7906 38.6649 83.8002 38.8101 83.805 38.9562L95.7283 38.9657C95.8027 38.8141 95.7659 38.6521 95.7659 38.4957C95.7659 34.0624 95.7659 29.6291 95.7659 25.1957C95.7659 22.395 95.7611 19.5942 95.7731 16.7934C95.7763 16.4998 95.6859 16.3378 95.4266 16.2078ZM90.0571 33.7967C89.7194 33.7528 89.2793 33.9371 89.0616 33.7169C88.8608 33.5166 89.0048 33.0857 89.0048 32.7594C89.0011 28.2223 89.0011 23.6855 89.0048 19.149V18.6423C89.497 18.908 89.9227 19.149 90.3596 19.3676C90.5461 19.4601 90.5381 19.6022 90.5381 19.7626C90.5381 20.5717 90.5381 21.3811 90.5381 22.1907C90.5381 25.9043 90.5309 29.6187 90.5493 33.3331C90.5469 33.7337 90.43 33.8446 90.0571 33.7967ZM90.5301 6.59181C90.5405 8.07597 90.5252 9.55934 90.542 11.0435C90.5553 11.3326 90.4538 11.6153 90.2596 11.8303C89.8531 12.3011 89.4689 12.7926 89.0024 13.3663V12.1893C89.0024 10.0692 89.008 7.9499 88.9952 5.82978C88.9952 5.53135 89.0696 5.43081 89.3713 5.45794C89.7394 5.49065 90.2204 5.34702 90.4516 5.53055C90.7005 5.72764 90.5277 6.22396 90.5301 6.59181Z" fill="#606060"/>
</g>
<defs>
<clipPath id="clip0">
<rect width="129" height="39" fill="white"/>
</clipPath>
</defs>
</svg>
