<svg width="130" height="80" viewBox="0 0 130 80" fill="none" xmlns="http://www.w3.org/2000/svg">
<path d="M82.9382 62.3103C81.0023 60.723 78.9828 59.2474 76.8983 57.8695C76.3691 57.5204 75.8491 57.2876 75.1946 57.376C74.3543 57.4924 73.5047 57.4086 72.6598 57.3854C69.1176 57.2876 65.6775 56.6825 62.3953 55.2953C52.4511 51.0918 51.5412 41.1487 54.2153 35.0786C56.0537 30.8984 59.3731 28.287 63.5188 26.6251C67.3488 25.089 71.3506 24.7352 75.4313 24.8516C77.9847 24.926 80.487 25.2519 82.9057 26.1224C83.3281 26.276 83.486 26.4715 83.4767 26.937C83.4442 29.339 83.4535 31.741 83.4442 34.1383C83.4396 34.3152 83.5138 34.5107 83.3606 34.7015C83.1842 34.6178 83.0171 34.5386 82.85 34.4548C80.1341 33.0863 77.279 32.3601 74.2196 32.4625C71.6941 32.5509 69.3915 33.2492 67.6273 35.1298C65.4825 37.4201 65.1204 40.241 65.7379 43.169C66.4899 46.7254 68.9829 48.5781 72.3487 49.4486C72.7526 49.551 73.0637 49.4719 73.4165 49.2717C77.6226 46.8651 81.8426 44.4817 86.0486 42.0704C86.4897 41.819 86.6846 41.8237 86.9353 42.3078C87.6085 43.6159 88.3466 44.8867 89.0569 46.1715C89.0894 46.1622 89.1266 46.1528 89.1637 46.1435V45.6641C89.1637 39.0959 89.1684 32.5277 89.1544 25.9641C89.1498 25.4707 89.2705 25.3357 89.7765 25.3403C93.3791 25.3636 96.9816 25.3636 100.584 25.3403C101.113 25.3357 101.243 25.48 101.243 26.006C101.22 31.6153 101.229 37.2246 101.229 42.8338V43.6578C101.448 43.3273 101.554 43.169 101.652 43.0107C104.423 38.756 107.413 34.6643 110.798 30.8751C111.215 30.405 111.257 30.0698 111.006 29.5112C106.721 20.015 102.464 10.5002 98.1979 0.99469H96.0346C95.5564 1.26002 95.0178 1.1483 94.5118 1.17623C89.7579 1.46484 84.9994 1.72552 80.2455 1.99551C75.9095 2.23757 71.5781 2.47963 67.2467 2.72169C61.9403 3.01961 56.634 3.31753 51.3277 3.62011C46.0585 3.91803 40.7986 4.21595 35.534 4.50921C30.2277 4.80713 24.9214 5.10505 19.615 5.40297C14.6012 5.68227 9.59197 5.96158 4.58276 6.24553C3.40358 6.3107 2.22439 6.38518 0.994141 6.45966C1.08235 6.70637 1.1427 6.87861 1.20769 7.05084C6.89471 22.5613 12.5864 38.0718 18.2827 53.5776C18.7005 54.718 19.0301 55.8958 19.5918 56.9804C19.5872 56.9804 19.5872 56.985 19.5872 56.985C19.6011 57.0874 19.5965 57.1992 19.629 57.2923C22.3587 64.7263 25.0931 72.165 27.8136 79.6037C27.9529 79.99 28.0736 80.0738 28.4775 79.9435C30.8498 79.1708 33.2314 78.4306 35.6083 77.6812C49.1179 73.4218 62.6228 69.1625 76.1323 64.9032C78.5 64.1584 80.8723 63.4182 83.2353 62.6781C83.2074 62.45 83.0496 62.3988 82.9382 62.3103ZM87.9288 14.5314C88.3791 10.3047 92.1535 8.31235 95.8024 8.56837C96.652 8.62889 97.483 8.77785 98.2769 9.08973C101.03 10.165 102.52 12.3901 102.52 15.4112C102.52 19.3587 99.6603 22.147 95.5332 22.2355C94.0522 22.268 92.6223 22.0399 91.3039 21.3184C88.783 19.9452 87.6178 17.4641 87.9288 14.5314ZM50.3203 37.2432C50.0556 39.8081 48.9182 41.8889 46.9684 43.5367C45.0186 45.1846 42.6927 46.0178 40.2554 46.5765C37.6974 47.1583 35.093 47.2514 32.4839 47.2235C31.4533 47.2142 31.3558 47.3212 31.3512 48.35C31.3465 50.8544 31.3512 53.3634 31.3465 55.8725C31.3465 56.7709 31.328 56.7849 30.4088 56.7895C27.1219 56.7895 23.8397 56.7849 20.5528 56.7942C20.2603 56.7942 19.9539 56.7476 19.6893 56.9152C19.6847 56.9012 19.68 56.8873 19.6708 56.8733C19.8286 56.5428 19.7682 56.1797 19.7682 55.8306C19.7729 46.0784 19.7729 36.3261 19.7729 26.5786C19.7729 25.5591 19.7775 25.5452 20.8035 25.5591C26.0773 25.6243 31.3512 25.4148 36.625 25.6802C39.3408 25.8151 41.9685 26.3458 44.4615 27.4258C46.6156 28.3614 48.4215 29.73 49.4707 31.9132C50.2831 33.5983 50.5152 35.3812 50.3203 37.2432Z" fill="#D4492A"/>
<path d="M127.966 30.9922C127.734 27.5149 128.268 24.0888 128.667 20.6487C128.783 19.6758 128.862 18.703 128.96 17.6602C128.765 17.7254 128.681 17.7394 128.612 17.7766C127.79 18.2142 126.954 18.6285 126.151 19.094C121.16 22.0033 116.862 25.7553 112.953 29.982C107.015 36.4059 102.154 43.5979 97.9203 51.2367C96.704 53.4339 95.5759 55.6823 94.4663 57.9958C94.4617 58.0051 94.457 58.0098 94.457 58.0191C94.4524 58.0098 94.4477 58.0051 94.4477 58.0005C94.3317 57.8236 94.2388 57.6932 94.1599 57.5536C91.6437 52.987 89.1182 48.4205 86.6205 43.84C86.3327 43.3093 86.147 43.1743 85.5621 43.5094C80.5853 46.3676 75.5808 49.1885 70.5948 52.0234C70.163 52.2702 69.6895 52.4517 69.3506 52.7915C79.8936 57.1765 87.9436 64.7595 95.4876 73.0408C95.5851 72.9011 95.678 72.7847 95.7523 72.6591C96.8943 70.7459 98.1571 68.9118 99.4755 67.115C103.124 62.1481 107.089 57.4512 111.337 52.9917C115 49.1467 118.816 45.4739 123.138 42.3643C125.241 40.8514 127.418 39.4549 129.995 38.8638V38.7381C128.751 36.3082 128.152 33.7014 127.966 30.9922Z" fill="#D4492A"/>
<path d="M118.876 47.1031C116.615 49.1141 114.471 51.1716 112.414 53.3641C112.502 53.392 112.549 53.4246 112.577 53.4106C115.158 52.6053 117.73 51.7953 120.306 50.99C120.543 50.9202 120.543 50.8131 120.459 50.6269C119.939 49.4725 119.42 48.3181 118.876 47.1031Z" fill="#D4492A"/>
<path d="M35.9948 32.4911C34.6299 32.1233 33.2372 32.128 31.8398 32.128C31.4359 32.128 31.4731 32.3747 31.4731 32.6307V40.2044C31.4731 40.4372 31.4313 40.6652 31.8073 40.6606C33.3068 40.6559 34.8156 40.6653 36.2548 40.1625C38.2464 39.4689 39.1238 38.1515 39.0449 35.9916C38.9799 34.246 37.9029 33.0124 35.9948 32.4911Z" fill="#D4492A"/>
</svg>
