<svg width="76" height="90" viewBox="0 0 76 90" fill="none" xmlns="http://www.w3.org/2000/svg">
<path d="M66.6814 0H22.2372C17.4945 0 13.6417 3.85284 13.6417 8.59557V9.69782H9.0304C4.05509 9.69782 0 13.7529 0 18.7383V80.9096C0 85.895 4.05509 89.94 9.0304 89.94H54.3746C59.36 89.94 63.4151 85.895 63.4151 80.9096V76.086H66.6814C71.4241 76.086 75.277 72.2331 75.277 67.4904V8.59557C75.277 3.85284 71.4241 0 66.6814 0ZM57.3881 80.9096C57.3881 82.568 56.0431 83.9231 54.3746 83.9231H9.0304C7.37196 83.9231 6.02701 82.568 6.02701 80.9096V18.7383C6.02701 17.0698 7.37196 15.7248 9.0304 15.7248H13.6417H20.7204H37.4463V33.4418C37.4463 35.1003 38.7913 36.4452 40.4497 36.4452H57.3881V69.0073V76.086V80.9096ZM43.4632 30.4283V20.1844L53.333 30.4283H43.4632ZM68.1983 67.4904C68.1983 68.3297 67.5207 69.0073 66.6814 69.0073H63.4151V33.4317C63.4151 33.3811 63.3847 33.3407 63.3847 33.2901C63.3746 32.9867 63.314 32.6935 63.2027 32.4103C63.1825 32.3396 63.1623 32.2587 63.1319 32.1879C62.9904 31.8845 62.8184 31.6014 62.5757 31.3486L62.5353 31.3081C62.5353 31.298 62.5252 31.298 62.5252 31.298L42.6239 10.6281C42.6037 10.6079 42.5835 10.6079 42.5733 10.5877C42.5632 10.5776 42.543 10.5675 42.5329 10.5574C42.2902 10.3248 42.0071 10.1428 41.7138 10.0113C41.6228 9.96074 41.5217 9.94053 41.4306 9.90008C41.1778 9.80907 40.9149 9.75848 40.652 9.74837C40.5812 9.73826 40.5104 9.69782 40.4396 9.69782H20.7204V8.59557C20.7204 7.75624 21.3979 7.0787 22.2372 7.0787H66.6814C67.5207 7.0787 68.1983 7.75624 68.1983 8.59557V67.4904Z" fill="#D4492A"/>
<path d="M43.2212 52.8071H20.1951C18.5367 52.8071 17.1816 54.1521 17.1816 55.8105C17.1816 57.4791 18.5367 58.824 20.1951 58.824H43.2212C44.8796 58.824 46.2347 57.4791 46.2347 55.8105C46.2347 54.1521 44.8796 52.8071 43.2212 52.8071Z" fill="#D4492A"/>
<path d="M43.2212 63.7892H20.1951C18.5367 63.7892 17.1816 65.1342 17.1816 66.7926C17.1816 68.4612 18.5367 69.8061 20.1951 69.8061H43.2212C44.8796 69.8061 46.2347 68.4612 46.2347 66.7926C46.2347 65.1342 44.8796 63.7892 43.2212 63.7892Z" fill="#D4492A"/>
</svg>
