<svg width="91" height="90" viewBox="0 0 91 90" fill="none" xmlns="http://www.w3.org/2000/svg">
<path d="M80.9821 34.654H50.9487V9.26338C50.9487 4.15177 46.7858 0 41.6853 0H9.27455C4.16294 0 0 4.15177 0 9.26338V70.8259C0 75.9375 4.16294 80.0893 9.27455 80.0893H11.6183V80.5134C11.6183 85.7478 15.8817 90 21.1049 90H80.9821C86.2165 90 90.4688 85.7478 90.4688 80.5134V44.1406C90.4688 38.9174 86.2165 34.654 80.9821 34.654ZM11.6183 44.1406V52.2879V72.2768H9.27455C8.47098 72.2768 7.8125 71.6295 7.8125 70.8259V9.26338C7.8125 8.45981 8.47098 7.8125 9.27455 7.8125H13.9844V9.41963C13.9844 12.5 16.4844 15 19.5648 15H31.3839C34.4643 15 36.9643 12.5 36.9643 9.41963V7.8125H41.6853C42.4889 7.8125 43.1362 8.45981 43.1362 9.26338V34.654H21.1049C15.8817 34.654 11.6183 38.9174 11.6183 44.1406ZM82.6562 80.5134C82.6562 81.4397 81.9085 82.1875 80.9821 82.1875H21.1049C20.1898 82.1875 19.4308 81.4397 19.4308 80.5134V80.0893V72.2768V56.1942H43.1362H50.9487H57.6786C59.8326 56.1942 61.5848 54.442 61.5848 52.2879C61.5848 50.1339 59.8326 48.3817 57.6786 48.3817H50.9487H43.1362H19.4308V44.1406C19.4308 43.2254 20.1898 42.4665 21.1049 42.4665H43.1362H50.9487H80.9821C81.9085 42.4665 82.6562 43.2254 82.6562 44.1406V80.5134Z" fill="#D4492A"/>
<path d="M74.8781 48.3817H68.5723C66.4182 48.3817 64.666 50.1339 64.666 52.2879C64.666 54.442 66.4182 56.1942 68.5723 56.1942H74.8781C77.0321 56.1942 78.7843 54.442 78.7843 52.2879C78.7843 50.1339 77.0321 48.3817 74.8781 48.3817Z" fill="#D4492A"/>
<path d="M36.6733 63.6496C35.2112 63.6496 33.8831 64.2187 32.8898 65.1339C31.8965 64.2187 30.5795 63.6496 29.1175 63.6496C26.0371 63.6496 23.5371 66.1384 23.5371 69.2299C23.5371 70.3571 23.8719 71.3951 24.4411 72.2768C25.4344 73.8058 27.1643 74.8103 29.1175 74.8103C30.5795 74.8103 31.8965 74.2299 32.8898 73.3147C33.8831 74.2299 35.2112 74.8103 36.6733 74.8103C38.6264 74.8103 40.3563 73.8058 41.3385 72.2768C41.9188 71.3951 42.2536 70.3571 42.2536 69.2299C42.2536 66.1384 39.7536 63.6496 36.6733 63.6496Z" fill="#D4492A"/>
</svg>
