<svg width="86" height="90" viewBox="0 0 86 90" fill="none" xmlns="http://www.w3.org/2000/svg">
<path d="M67.0445 50.73V29.84C67.0445 25.15 63.2345 21.34 58.5445 21.34H58.3145V15.72C58.3145 7.05 51.2645 0 42.5945 0C33.9245 0 26.8745 7.05 26.8745 15.72V21.34H26.6445C21.9545 21.34 18.1445 25.15 18.1445 29.84V50.73C18.1445 55.42 21.9545 59.23 26.6445 59.23H58.5245C63.2345 59.23 67.0445 55.42 67.0445 50.73ZM33.8845 15.72C33.8845 10.91 37.7945 7 42.6045 7C47.4145 7 51.3245 10.91 51.3245 15.72V21.34H33.8845V15.72ZM60.0445 50.73C60.0445 51.56 59.3745 52.23 58.5445 52.23H26.6645C25.8345 52.23 25.1645 51.56 25.1645 50.73V29.84C25.1645 29.01 25.8345 28.34 26.6645 28.34H30.3945H54.8245H58.5545C59.3845 28.34 60.0545 29.01 60.0545 29.84V50.73H60.0445Z" fill="#D4492A"/>
<path d="M42.6038 34.01C40.8538 34.01 39.4238 35.43 39.4238 37.19V43.39C39.4238 45.14 40.8438 46.57 42.6038 46.57C44.3638 46.57 45.7838 45.15 45.7838 43.39V37.19C45.7838 35.43 44.3538 34.01 42.6038 34.01Z" fill="#D4492A"/>
<path d="M21.2743 69.75L16.6143 71.87V67.25C16.6143 65.32 15.0443 63.75 13.1143 63.75C11.1843 63.75 9.61431 65.32 9.61431 67.25V71.87L4.95431 69.75C3.19431 68.95 1.12431 69.73 0.314311 71.49C-0.485689 73.25 0.294311 75.32 2.05431 76.13L7.83431 78.76L4.16431 83.99C3.05431 85.57 3.44431 87.76 5.02431 88.87C5.63431 89.3 6.33431 89.5 7.02431 89.5C8.12431 89.5 9.21431 88.98 9.89431 88.01L13.1043 83.42L16.3243 88.01C17.0043 88.98 18.0943 89.5 19.1943 89.5C19.8843 89.5 20.5843 89.29 21.1943 88.87C22.7743 87.76 23.1643 85.58 22.0543 83.99L18.3843 78.75L24.1643 76.12C25.9243 75.32 26.7043 73.24 25.9043 71.48C25.1043 69.73 23.0243 68.95 21.2743 69.75Z" fill="#D4492A"/>
<path d="M50.7645 69.75L46.1045 71.87V67.25C46.1045 65.32 44.5345 63.75 42.6045 63.75C40.6745 63.75 39.1045 65.32 39.1045 67.25V71.87L34.4445 69.75C32.6845 68.95 30.6145 69.73 29.8045 71.49C29.0045 73.25 29.7845 75.32 31.5445 76.13L37.3245 78.76L33.6545 83.99C32.5445 85.57 32.9345 87.76 34.5145 88.87C35.1245 89.3 35.8245 89.5 36.5145 89.5C37.6145 89.5 38.7045 88.98 39.3845 88.01L42.5945 83.42L45.8145 88.01C46.4945 88.98 47.5845 89.5 48.6845 89.5C49.3745 89.5 50.0745 89.29 50.6845 88.87C52.2645 87.76 52.6545 85.58 51.5445 83.99L47.8745 78.75L53.6545 76.12C55.4145 75.32 56.1945 73.24 55.3945 71.48C54.5945 69.73 52.5145 68.95 50.7645 69.75Z" fill="#D4492A"/>
<path d="M84.884 71.49C84.084 69.73 82.004 68.95 80.244 69.75L75.584 71.87V67.25C75.584 65.32 74.014 63.75 72.084 63.75C70.154 63.75 68.584 65.32 68.584 67.25V71.87L63.924 69.75C62.164 68.95 60.094 69.73 59.284 71.49C58.484 73.25 59.264 75.32 61.024 76.13L66.804 78.76L63.144 83.99C62.034 85.57 62.424 87.76 64.004 88.87C64.614 89.3 65.314 89.5 66.004 89.5C67.104 89.5 68.194 88.98 68.874 88.01L72.084 83.42L75.304 88.01C75.984 88.98 77.074 89.5 78.174 89.5C78.864 89.5 79.564 89.29 80.174 88.87C81.754 87.76 82.144 85.58 81.034 83.99L77.364 78.75L83.144 76.12C84.914 75.32 85.684 73.25 84.884 71.49Z" fill="#D4492A"/>
</svg>
