<svg width="104" height="95" viewBox="0 0 104 95" fill="none" xmlns="http://www.w3.org/2000/svg">
<path d="M95.29 0H22.62C17.93 0 14.12 3.81 14.12 8.5V12.19H8.5C3.82 12.19 0 16 0 20.69V69.2C0 73.89 3.82 77.7 8.5 77.7H24.42C26.08 87.46 34.6 94.92 44.83 94.92C55.07 94.92 63.59 87.46 65.25 77.7H81.17C85.85 77.7 89.67 73.89 89.67 69.2V65.51H95.29C99.97 65.51 103.79 61.69 103.79 57.01V8.5C103.79 3.81 99.97 0 95.29 0ZM44.83 87.92C38.48 87.92 33.13 83.57 31.57 77.7C31.28 76.58 31.12 75.41 31.12 74.2C31.12 72.99 31.28 71.82 31.57 70.7C32.08 68.77 33 67.01 34.24 65.51C36.75 62.45 40.56 60.49 44.83 60.49C49.1 60.49 52.92 62.45 55.43 65.51C56.67 67.01 57.59 68.77 58.1 70.7C58.39 71.82 58.55 72.99 58.55 74.2C58.55 75.41 58.39 76.58 58.1 77.7C56.54 83.57 51.19 87.92 44.83 87.92ZM82.67 69.2C82.67 70.03 81.99 70.7 81.17 70.7H65.25C64.94 68.88 64.39 67.14 63.64 65.51C62.38 62.81 60.57 60.43 58.34 58.51C54.71 55.38 49.99 53.49 44.83 53.49C39.68 53.49 34.96 55.38 31.33 58.51C29.1 60.43 27.29 62.81 26.03 65.51C25.28 67.14 24.73 68.88 24.42 70.7H8.5C7.67 70.7 7 70.03 7 69.2V20.69C7 19.86 7.67 19.19 8.5 19.19H14.12H21.12H81.17C81.99 19.19 82.67 19.86 82.67 20.69V58.51V65.51V69.2ZM96.79 57.01C96.79 57.83 96.11 58.51 95.29 58.51H89.67V20.69C89.67 16 85.85 12.19 81.17 12.19H21.12V8.5C21.12 7.67 21.79 7 22.62 7H95.29C96.11 7 96.79 7.67 96.79 8.5V57.01Z" fill="#D4492A"/>
<path d="M66.0102 26.3501H23.6602C22.6602 26.3501 21.7502 26.7701 21.1202 27.4601C20.5202 28.0801 20.1602 28.9201 20.1602 29.8501C20.1602 30.7801 20.5202 31.6201 21.1202 32.2401C21.7502 32.9301 22.6602 33.3501 23.6602 33.3501H66.0102C67.9402 33.3501 69.5102 31.7801 69.5102 29.8501C69.5102 27.9201 67.9402 26.3501 66.0102 26.3501Z" fill="#D4492A"/>
<path d="M66.0102 37.8H23.6602C22.6602 37.8 21.7502 38.22 21.1202 38.91C20.5202 39.53 20.1602 40.38 20.1602 41.3C20.1602 42.22 20.5202 43.07 21.1202 43.69C21.7502 44.38 22.6602 44.8 23.6602 44.8H66.0102C67.9402 44.8 69.5102 43.23 69.5102 41.3C69.5102 39.37 67.9402 37.8 66.0102 37.8Z" fill="#D4492A"/>
<path d="M48.8704 66.9999L45.1704 70.6999L41.8904 73.9799L40.7904 72.8899C39.4304 71.5199 37.2104 71.5199 35.8504 72.8899C34.5304 74.2099 34.4804 76.3199 35.7204 77.6999C35.7604 77.7499 35.8004 77.7899 35.8504 77.8399L39.4104 81.4099C40.1004 82.0899 40.9904 82.4299 41.8904 82.4299C42.7804 82.4299 43.6804 82.0899 44.3604 81.4099L48.0704 77.6999L53.8204 71.9499C54.1904 71.5799 54.4604 71.1499 54.6204 70.6999C55.0904 69.4499 54.8204 67.9999 53.8204 66.9999C52.4604 65.6299 50.2404 65.6299 48.8704 66.9999Z" fill="#D4492A"/>
</svg>
