<svg width="117" height="90" viewBox="0 0 117 90" fill="none" xmlns="http://www.w3.org/2000/svg">
<path d="M105.582 0H33.5149C27.2149 0 22.097 5.1317 22.097 11.4487V25.9548C14.6687 28.0156 9.20149 34.8578 9.20149 42.9527V47.9228C4.05672 48.3134 0 52.6369 0 57.8899V79.9925C0 85.5148 4.47313 90 9.9806 90H43.6299C49.1239 90 53.597 85.5148 53.597 79.9925V66.7929H105.582C111.869 66.7929 117 61.6477 117 55.3442V11.4487C117 5.1317 111.869 0 105.582 0ZM18.6045 42.9527C18.6045 40.1781 19.9881 37.7133 22.097 36.2317C23.4269 35.2888 25.0522 34.7366 26.7985 34.7366C28.5448 34.7366 30.1702 35.2888 31.5 36.2317C33.609 37.7133 34.9925 40.1781 34.9925 42.9527V47.8824H31.5H22.097H18.6045V42.9527ZM44.194 79.9925C44.194 80.3158 43.9388 80.5717 43.6299 80.5717H9.9806C9.65821 80.5717 9.40299 80.3158 9.40299 79.9925V57.8899C9.40299 57.5666 9.65821 57.3107 9.9806 57.3107H13.903H22.2716H33.0716H39.694H43.6299C43.7239 57.3107 43.8045 57.3376 43.8716 57.3646C44.0597 57.4588 44.194 57.6609 44.194 57.8899V66.7929V79.9925ZM105.582 57.3646H53.5702C53.3284 52.3406 49.3657 48.2864 44.3955 47.9228V42.9527C44.3955 34.8578 38.9284 28.0156 31.5 25.9548V11.4487C31.5 10.3307 32.4 9.42832 33.5149 9.42832H105.582C106.697 9.42832 107.597 10.3307 107.597 11.4487V16.5534H61.5627C58.9702 16.5534 56.8612 18.6681 56.8612 21.2676C56.8612 23.8671 58.9702 25.9817 61.5627 25.9817H107.597V55.3442C107.597 56.4487 106.697 57.3646 105.582 57.3646Z" fill="#D4492A"/>
<path d="M26.7977 62.3077C26.1126 62.3077 25.4678 62.5232 24.9305 62.8734C24.0305 63.466 23.4395 64.4897 23.4395 65.6615V72.2209C23.4395 74.0796 24.9439 75.5881 26.7977 75.5881C28.6514 75.5881 30.1559 74.0796 30.1559 72.2209V66.2945V65.6615C30.1559 64.7321 29.7798 63.897 29.1753 63.2909C28.5708 62.6848 27.7245 62.3077 26.7977 62.3077Z" fill="#D4492A"/>
<path d="M48.4531 16.5534H40.8636C38.2711 16.5534 36.1621 18.6681 36.1621 21.2676C36.1621 23.8671 38.2711 25.9818 40.8636 25.9818H48.4531C51.0457 25.9818 53.1546 23.8671 53.1546 21.2676C53.1546 18.6681 51.0457 16.5534 48.4531 16.5534Z" fill="#D4492A"/>
<path d="M93.8829 34.9791C92.1232 34.9791 90.5382 35.666 89.3427 36.7839C88.1471 35.6795 86.5621 34.9791 84.8024 34.9791C81.0949 34.9791 78.0859 37.9961 78.0859 41.7136C78.0859 45.431 81.0949 48.4481 84.8024 48.4481C86.5621 48.4481 88.1471 47.7612 89.3427 46.6432C90.5382 47.7477 92.1232 48.4481 93.8829 48.4481C97.5904 48.4481 100.599 45.431 100.599 41.7136C100.599 37.9961 97.5904 34.9791 93.8829 34.9791Z" fill="#D4492A"/>
</svg>
