<svg width="90" height="86" viewBox="0 0 90 86" fill="none" xmlns="http://www.w3.org/2000/svg">
<path d="M32.7698 3.52759H6.46707C4.8907 3.52759 3.61279 4.77524 3.61279 6.3143V31.9944C3.61279 33.5334 4.8907 34.7811 6.46707 34.7811H32.7698C34.3461 34.7811 35.624 33.5334 35.624 31.9944V6.3143C35.624 4.77524 34.3461 3.52759 32.7698 3.52759Z" stroke="#D4492A" stroke-width="2" stroke-miterlimit="10"/>
<path d="M81.4009 3.52759H55.0982C53.5218 3.52759 52.2439 4.77524 52.2439 6.3143V31.9944C52.2439 33.5334 53.5218 34.7811 55.0982 34.7811H81.4009C82.9772 34.7811 84.2551 33.5334 84.2551 31.9944V6.3143C84.2551 4.77524 82.9772 3.52759 81.4009 3.52759Z" stroke="#D4492A" stroke-width="2" stroke-miterlimit="10"/>
<path d="M32.7698 51.1831H6.46707C4.8907 51.1831 3.61279 52.4308 3.61279 53.9698V79.6499C3.61279 81.1889 4.8907 82.4366 6.46707 82.4366H32.7698C34.3461 82.4366 35.624 81.1889 35.624 79.6499V53.9698C35.624 52.4308 34.3461 51.1831 32.7698 51.1831Z" stroke="#D4492A" stroke-width="2" stroke-miterlimit="10"/>
<path d="M55.0981 51.1831H89.9998" stroke="#D4492A" stroke-width="2" stroke-miterlimit="10"/>
<path d="M52.2439 79.6868V61.238" stroke="#D4492A" stroke-width="2" stroke-miterlimit="10"/>
<path d="M84.2557 65.9297V79.6869C84.2557 80.4259 83.9549 81.1348 83.4197 81.6574C82.8844 82.18 82.1584 82.4736 81.4014 82.4736H65.7571" stroke="#D4492A" stroke-width="2" stroke-miterlimit="10"/>
<path d="M68.2483 69.5625V62.2959" stroke="#D4492A" stroke-width="2" stroke-miterlimit="10"/>
</svg>
