<svg width="93" height="94" viewBox="0 0 93 94" fill="none" xmlns="http://www.w3.org/2000/svg">
<g clip-path="url(#clip0)">
<path d="M46.5 1.33063e-05C37.3032 1.33063e-05 28.3129 2.75652 20.666 7.92094C13.0191 13.0854 7.0591 20.4258 3.53962 29.0139C0.0201474 37.602 -0.900707 47.0521 0.893505 56.1693C2.68772 65.2864 7.11641 73.661 13.6196 80.234C20.1227 86.8071 28.4082 91.2834 37.4283 93.0969C46.4484 94.9104 55.798 93.9797 64.2948 90.4223C72.7916 86.865 80.0539 80.8409 85.1634 73.1118C90.2728 65.3827 93 56.2957 93 47C93.0046 40.8266 91.805 34.7128 89.4698 29.0084C87.1346 23.304 83.7096 18.1209 79.3907 13.7556C75.0719 9.39035 69.9439 5.92854 64.3002 3.56821C58.6565 1.20789 52.6078 -0.00463362 46.5 1.33063e-05ZM46.5 84.6C39.1426 84.6 31.9503 82.3948 25.8328 78.2633C19.7153 74.1317 14.9473 68.2594 12.1317 61.3889C9.31612 54.5184 8.57944 46.9583 10.0148 39.6646C11.4502 32.3709 14.9931 25.6713 20.1956 20.4128C25.3982 15.1543 32.0266 11.5733 39.2427 10.1225C46.4588 8.67168 53.9384 9.41629 60.7358 12.2621C67.5332 15.108 73.3431 19.9273 77.4307 26.1106C81.5183 32.2939 83.7 39.5634 83.7 47C83.7 56.9722 79.7807 66.5359 72.8044 73.5872C65.828 80.6386 56.3661 84.6 46.5 84.6Z" fill="#D4492A"/>
<path d="M20.9774 72.8322L55.9398 56.5412L72.0575 21.2029L37.0951 37.6352L20.9774 72.8322ZM46.5699 41.8405C47.5795 41.8405 48.5664 42.1431 49.4058 42.71C50.2452 43.2769 50.8995 44.0827 51.2858 45.0255C51.6722 45.9682 51.7733 47.0056 51.5763 48.0064C51.3794 49.0072 50.8932 49.9266 50.1793 50.6481C49.4655 51.3697 48.5559 51.8611 47.5657 52.0601C46.5756 52.2592 45.5492 52.157 44.6165 51.7665C43.6838 51.376 42.8865 50.7147 42.3256 49.8663C41.7648 49.0178 41.4654 48.0203 41.4654 46.9999C41.4561 46.3227 41.5806 45.6505 41.8316 45.0226C42.0826 44.3947 42.4551 43.8237 42.9273 43.3432C43.3994 42.8627 43.9617 42.4822 44.5812 42.2242C45.2007 41.9662 45.8649 41.8357 46.5349 41.8405H46.5699Z" fill="#D4492A"/>
</g>
<defs>
<clipPath id="clip0">
<rect width="93" height="94" fill="white"/>
</clipPath>
</defs>
</svg>
