<svg width="47" height="94" viewBox="0 0 47 94" fill="none" xmlns="http://www.w3.org/2000/svg">
<path opacity="0.6" d="M40.738 9.39304H32.9104V0H14.0896V9.39304H6.26203C4.60685 9.41113 3.02457 10.0767 1.85411 11.2471C0.683647 12.4176 0.018091 13.9999 0 15.6551L0 28.2139H25.7091L28.2139 23.4826V28.2139H47V15.6551C46.9819 13.9999 46.3164 12.4176 45.1459 11.2471C43.9754 10.0767 42.3932 9.41113 40.738 9.39304Z" fill="#D4492A"/>
<path d="M28.2139 49.3318H37.607L18.7861 84.6079V58.7596H9.39304L25.7091 28.2148H0V87.7389C0.0272593 89.3848 0.697932 90.9545 1.86838 92.1119C3.03882 93.2694 4.61596 93.9225 6.26203 93.9313H40.7032C42.3672 93.9314 43.9636 93.2727 45.1434 92.0994C46.3233 90.926 46.9908 89.3333 47 87.6693V28.2148H28.2139V49.3318Z" fill="#D4492A"/>
</svg>
