<svg width="89" height="81" viewBox="0 0 89 81" fill="none" xmlns="http://www.w3.org/2000/svg">
<g clip-path="url(#clip0)">
<path d="M80.2434 8.99608H66.2881L57.8451 0H31.1556L22.9917 8.99608H9.03643C7.8577 8.9821 6.68789 9.20422 5.59445 9.64962C4.50102 10.095 3.5056 10.7549 2.66559 11.5912C1.82558 12.4275 1.1576 13.4236 0.700163 14.5223C0.242729 15.6209 0.00489368 16.8002 0.00036997 17.9922V72.0039C-0.013453 73.1959 0.206203 74.3788 0.646673 75.4844C1.08714 76.5901 1.73971 77.5967 2.56675 78.4461C3.39379 79.2955 4.37893 79.9709 5.46538 80.4335C6.55182 80.896 7.71807 81.1365 8.89688 81.1411H80.2434C82.6001 81.1318 84.8576 80.181 86.524 78.496C88.1905 76.8109 89.1307 74.5281 89.1399 72.145V17.9922C89.1307 15.6091 88.1905 13.3263 86.524 11.6412C84.8576 9.95615 82.6001 9.00537 80.2434 8.99608ZM80.2434 72.0039H8.89688V17.9922H26.9341L35.0631 8.99608H53.9377L62.0666 17.9922H80.2434V72.0039ZM44.6574 22.6137C40.2535 22.6067 35.9466 23.9208 32.2816 26.3898C28.6166 28.8587 25.7582 32.3715 24.0681 36.4837C22.3781 40.5958 21.9323 45.1225 22.7872 49.4909C23.6421 53.8593 25.7593 57.8731 28.8708 61.0245C31.9824 64.1758 35.9485 66.3229 40.2672 67.1943C44.5859 68.0656 49.0632 67.6219 53.1325 65.9194C57.2017 64.2169 60.6801 61.332 63.1275 57.6299C65.5749 53.9277 66.8812 49.5746 66.8812 45.1215C66.8951 42.1479 66.3261 39.201 65.2071 36.4511C64.0882 33.7011 62.4414 31.2027 60.362 29.1C58.2826 26.9973 55.8118 25.3321 53.0923 24.2007C50.3728 23.0692 47.4585 22.4938 44.5178 22.5078L44.6574 22.6137ZM44.6574 58.598C42.0116 58.605 39.4234 57.8176 37.2206 56.3356C35.0179 54.8536 33.2998 52.7437 32.2841 50.2733C31.2685 47.8029 31.0009 45.0832 31.5154 42.4589C32.0298 39.8346 33.3032 37.4238 35.174 35.532C37.0449 33.6403 39.429 32.3527 42.0242 31.8324C44.6195 31.3122 47.3091 31.5828 49.7521 32.6098C52.1952 33.6368 54.2817 35.3741 55.7473 37.6015C57.2129 39.8289 57.9916 42.4462 57.9847 45.1215C57.9479 48.699 56.5094 52.1156 53.9849 54.6221C51.4603 57.1286 48.0557 58.5204 44.5178 58.4922L44.6574 58.598Z" fill="#D4492A"/>
</g>
<defs>
<clipPath id="clip0">
<rect width="89" height="81" fill="white"/>
</clipPath>
</defs>
</svg>
