<svg width="90" height="91" viewBox="0 0 90 91" fill="none" xmlns="http://www.w3.org/2000/svg">
<path d="M82.5559 0.392395L0.388083 83.4731C0.857788 85.188 1.74298 86.7573 2.96354 88.0392C4.2179 89.2651 5.75962 90.1489 7.44414 90.6076L89.6472 7.52685C89.187 5.8137 88.2897 4.25289 87.0451 3.00076C85.8006 1.74863 84.2525 0.849143 82.5559 0.392395ZM44.4179 0L0 44.9114V59.1803L58.5653 0H44.4179ZM9.98432 0C7.34202 0.0186836 4.81319 1.08829 2.94476 2.97748C1.07633 4.86667 0.0184783 7.4236 0 10.0953L0 20.2262L20.0039 0H9.98432ZM80.0157 91C82.6637 91 85.2032 89.9364 87.0757 88.0432C88.9481 86.1499 90 83.5822 90 80.9047V70.7738L69.9961 91H80.0157ZM31.4347 91H45.5468L90 46.1243V31.8554L31.4347 91Z" fill="#D4492A"/>
</svg>
