<svg width="79" height="97" viewBox="0 0 79 97" fill="none" xmlns="http://www.w3.org/2000/svg">
<g clip-path="url(#clip0)">
<path d="M65.0056 38.6381C63.8408 36.3652 61.8248 34.6392 59.3925 33.8323C56.9603 33.0255 54.3069 33.2026 52.0047 34.3254C50.9471 32.2412 49.1635 30.6112 46.987 29.7396C44.8104 28.8679 42.3894 28.8142 40.176 29.5885V9.82797C40.1692 7.29022 39.1797 4.85274 37.4133 3.02243C35.6468 1.19212 33.2394 0.109854 30.6917 0.000711645C29.3899 -0.0371313 28.0936 0.185434 26.8798 0.655222C25.6659 1.12501 24.5592 1.83247 23.6251 2.73568C22.691 3.63889 21.9485 4.71949 21.4417 5.91345C20.9349 7.10741 20.6741 8.39046 20.6746 9.68657V59.3885L16.8738 55.4293C15.1141 53.5899 12.7071 52.5 10.1575 52.3879C7.60797 52.2759 5.11382 53.1505 3.19801 54.8283C2.23257 55.6944 1.45193 56.7447 0.902475 57.917C0.353024 59.0892 0.0459782 60.3594 -0.000412798 61.6521C-0.0468038 62.9447 0.168406 64.2335 0.632428 65.4417C1.09645 66.65 1.79981 67.7531 2.70071 68.6855L24.582 91.9103C26.0987 93.5191 27.9311 94.801 29.9657 95.6766C32.0004 96.5522 34.194 97.0029 36.4107 97.0007H62.8032C67.0992 97.0007 71.2191 95.3024 74.2568 92.2794C77.2945 89.2564 79.0011 85.1563 79.0011 80.8812V47.3342C78.9991 45.6926 78.5779 44.0784 77.7771 42.6433C76.9763 41.2082 75.822 39.9991 74.4228 39.1297C73.0236 38.2603 71.4253 37.7591 69.778 37.6731C68.1307 37.5871 66.4885 37.9192 65.0056 38.6381ZM72.5361 81.0579C72.5361 82.3299 72.2844 83.5894 71.7953 84.7645C71.3061 85.9397 70.5892 87.0074 69.6854 87.9069C68.7816 88.8063 67.7087 89.5197 66.5278 90.0065C65.347 90.4932 64.0814 90.7438 62.8032 90.7438H36.4107C35.0784 90.7404 33.7608 90.4658 32.5391 89.9369C31.3173 89.408 30.2172 88.636 29.3064 87.6683L7.38956 64.2314C7.07694 63.9313 6.82828 63.5716 6.65845 63.1738C6.48861 62.776 6.40108 62.3482 6.40108 61.916C6.40108 61.4837 6.48861 61.0559 6.65845 60.6581C6.82828 60.2603 7.07694 59.9006 7.38956 59.6006C8.06631 59.091 8.90403 58.8393 9.75107 58.8912C10.5981 58.9431 11.3985 59.295 12.0074 59.8834L21.3851 69.6753C21.8309 70.1426 22.4075 70.466 23.0401 70.6035C23.6728 70.7409 24.3323 70.6861 24.9333 70.4461C25.5343 70.2061 26.049 69.792 26.4107 69.2575C26.7724 68.723 26.9645 68.0926 26.962 67.4482V9.68657C26.9651 9.23759 27.0617 8.79414 27.2456 8.38413C27.4295 7.97412 27.6967 7.60645 28.0304 7.30426C28.3641 7.00207 28.757 6.77192 29.1845 6.62829C29.6119 6.48467 30.0646 6.43068 30.5141 6.46973C31.3747 6.51529 32.1843 6.89023 32.7735 7.51612C33.3627 8.14201 33.6859 8.97038 33.6755 9.82797C33.6755 45.1778 33.6755 29.235 33.6755 48.3947C33.6755 49.2572 34.0198 50.0844 34.6327 50.6943C35.2456 51.3042 36.0768 51.6468 36.9435 51.6468C37.8102 51.6468 38.6415 51.3042 39.2543 50.6943C39.8672 50.0844 40.2115 49.2572 40.2115 48.3947V38.1078C40.3282 37.2892 40.7572 36.5467 41.4094 36.0345C42.0616 35.5223 42.887 35.2796 43.7142 35.357C44.5414 35.4343 45.3069 35.8256 45.8519 36.4497C46.3969 37.0739 46.6794 37.8829 46.6409 38.7088V48.3947C46.6409 49.2478 46.9815 50.066 47.5877 50.6693C48.1939 51.2726 49.0161 51.6115 49.8734 51.6115C50.7307 51.6115 51.5529 51.2726 52.1591 50.6693C52.7653 50.066 53.1058 49.2478 53.1058 48.3947V43.0215C53.1899 42.2219 53.5686 41.4817 54.1688 40.9437C54.7691 40.4056 55.5482 40.1079 56.3561 40.1079C57.1639 40.1079 57.9431 40.4056 58.5433 40.9437C59.1435 41.4817 59.5222 42.2219 59.6063 43.0215V48.3947C59.6063 49.2478 59.9468 50.066 60.5531 50.6693C61.1593 51.2726 61.9814 51.6115 62.8387 51.6115C63.6961 51.6115 64.5182 51.2726 65.1244 50.6693C65.7307 50.066 66.0712 49.2478 66.0712 48.3947V47.3342C66.0235 46.881 66.0721 46.4229 66.2137 45.9896C66.3553 45.5563 66.5869 45.1575 66.8933 44.8189C67.1997 44.4804 67.5742 44.2097 67.9925 44.0244C68.4108 43.8391 68.8636 43.7434 69.3214 43.7434C69.7793 43.7434 70.232 43.8391 70.6503 44.0244C71.0686 44.2097 71.4431 44.4804 71.7496 44.8189C72.056 45.1575 72.2875 45.5563 72.4292 45.9896C72.5708 46.4229 72.6193 46.881 72.5717 47.3342L72.5361 81.0579Z" fill="#D4492A"/>
</g>
<defs>
<clipPath id="clip0">
<rect width="79" height="97" fill="white"/>
</clipPath>
</defs>
</svg>
