<svg width="104" height="74" viewBox="0 0 104 74" fill="none" xmlns="http://www.w3.org/2000/svg">
<g clip-path="url(#clip0)">
<path d="M37.8213 59.7165L52.0532 74.0368L66.2852 59.7165C64.4203 57.8288 62.2028 56.3306 59.7603 55.3083C57.3178 54.286 54.6986 53.7598 52.0532 53.7598C49.4079 53.7598 46.7886 54.286 44.3462 55.3083C41.9037 56.3306 39.6862 57.8288 37.8213 59.7165Z" fill="#D4492A"/>
<path d="M18.8916 40.7062L28.4626 50.1218C34.7328 43.8256 43.2293 40.2895 52.0876 40.2895C60.946 40.2895 69.4425 43.8256 75.7127 50.1218L85.1769 40.6346C80.8255 36.25 75.6566 32.7728 69.9666 30.4026C64.2767 28.0323 58.1777 26.8156 52.0195 26.8223C45.8612 26.8289 39.7649 28.0588 34.08 30.4413C28.3952 32.8239 23.2337 36.3122 18.8916 40.7062Z" fill="#D4492A"/>
<path d="M0 21.6587L9.46425 31.1817C20.7469 19.8332 36.0469 13.458 52 13.458C67.9531 13.458 83.2531 19.8332 94.5358 31.1817L104 21.6587C90.2082 7.78295 71.5034 -0.012207 52 -0.012207C32.4966 -0.012207 13.7918 7.78295 0 21.6587H0Z" fill="#D4492A"/>
</g>
<defs>
<clipPath id="clip0">
<rect width="104" height="74" fill="white"/>
</clipPath>
</defs>
</svg>
