<svg width="93" height="92" viewBox="0 0 93 92" fill="none" xmlns="http://www.w3.org/2000/svg">
<path d="M61.9763 30.655H30.9882V61.3099H61.9763V30.655ZM51.6469 51.0916H41.3176V40.8733H51.6469V51.0916ZM93 40.8733V30.655H82.6706V20.4366C82.6612 17.7234 81.5651 15.1244 79.6223 13.2091C77.6795 11.2938 75.0485 10.2183 72.3057 10.2183H61.9763V0H51.6469V10.2183H41.3176V0H30.9882V10.2183H20.6588C17.9221 10.2276 15.3002 11.3071 13.3651 13.2214C11.43 15.1357 10.3387 17.7294 10.3294 20.4366V30.655H0V40.8733H10.3294V51.0916H0V61.3099H10.3294V71.5282C10.3294 74.2416 11.4165 76.8442 13.3526 78.7661C15.2888 80.688 17.916 81.7724 20.6588 81.7817H30.9882V92H41.3176V81.7817H51.6469V92H61.9763V81.7817H72.3057C75.0547 81.7817 77.691 80.7014 79.6348 78.7785C81.5786 76.8556 82.6706 74.2476 82.6706 71.5282V61.3099H93V51.0916H82.6706V40.8733H93ZM72.3057 71.5282H20.6588V20.4366H72.3057V71.5282Z" fill="#D4492A"/>
</svg>
