<svg width="61" height="93" viewBox="0 0 61 93" fill="none" xmlns="http://www.w3.org/2000/svg">
<g clip-path="url(#clip0)">
<path d="M4.0091e-06 62.817C0.269359 70.6487 3.60072 78.0705 9.29115 83.5165C14.9816 88.9624 22.5861 92.0065 30.5 92.0065C38.4139 92.0065 46.0184 88.9624 51.7089 83.5165C57.3993 78.0705 60.7307 70.6487 61 62.817V45.5196H4.0091e-06V62.817ZM48.4464 12.6404L57.6052 3.50151L54.069 0L43.9907 9.97929C39.8091 7.85726 35.1811 6.7416 30.4823 6.72289C25.8057 6.73805 21.1998 7.85422 17.0446 9.97929L7.07247 0L3.53624 3.50151L12.5536 12.6404C8.66575 15.4158 5.49992 19.0665 3.31723 23.2916C1.13454 27.5167 -0.00246395 32.1951 4.0091e-06 36.9409V41.2477H61V36.9409C61.0025 32.1951 59.8655 27.5167 57.6828 23.2916C55.5001 19.0665 52.3343 15.4158 48.4464 12.6404ZM17.4336 32.599C16.5734 32.599 15.7324 32.3464 15.0171 31.8732C14.3019 31.3999 13.7444 30.7273 13.4152 29.9403C13.0859 29.1534 12.9998 28.2874 13.1676 27.4519C13.3355 26.6165 13.7497 25.8491 14.358 25.2468C14.9663 24.6444 15.7413 24.2343 16.5851 24.0681C17.4288 23.9019 18.3034 23.9872 19.0981 24.3132C19.8929 24.6391 20.5722 25.1912 21.0502 25.8994C21.5281 26.6077 21.7832 27.4404 21.7832 28.2922C21.7832 29.4344 21.3249 30.5299 20.5092 31.3376C19.6935 32.1453 18.5872 32.599 17.4336 32.599ZM43.5664 32.599C42.7061 32.599 41.8652 32.3464 41.1499 31.8732C40.4346 31.3999 39.8771 30.7273 39.5479 29.9403C39.2187 29.1534 39.1326 28.2874 39.3004 27.4519C39.4682 26.6165 39.8825 25.8491 40.4908 25.2468C41.0991 24.6444 41.8741 24.2343 42.7178 24.0681C43.5616 23.9019 44.4361 23.9872 45.2309 24.3132C46.0257 24.6391 46.705 25.1912 47.1829 25.8994C47.6609 26.6077 47.9159 27.4404 47.9159 28.2922C47.9159 29.4344 47.4577 30.5299 46.642 31.3376C45.8263 32.1453 44.72 32.599 43.5664 32.599Z" fill="#D4492A"/>
</g>
<defs>
<clipPath id="clip0">
<rect width="61" height="93" fill="white"/>
</clipPath>
</defs>
</svg>
