<svg width="75" height="94" viewBox="0 0 75 94" fill="none" xmlns="http://www.w3.org/2000/svg">
<path d="M65.5943 2.28869e-10H28.0767L0 28.1543V84.4628C0.00924551 86.952 0.999472 89.3366 2.7548 91.0968C4.51013 92.857 6.88822 93.85 9.37061 93.8592H65.5241C66.7622 93.8685 67.99 93.6326 69.137 93.1649C70.2839 92.6973 71.3275 92.0072 72.2079 91.1342C73.0883 90.2612 73.7881 89.2225 74.2673 88.0776C74.7464 86.9328 74.9954 85.7043 75 84.4628V9.39648C74.9907 6.90115 73.9957 4.5112 72.2328 2.75002C70.4698 0.988842 68.0828 -1.73711e-05 65.5943 2.28869e-10ZM65.5943 9.39648V84.4628H9.4408V32.0958L32.0075 9.39648H65.5943ZM14.0384 70.3856H23.4441V79.8877H14.0384V70.3856ZM51.5208 70.3856H60.8914V79.8877H51.5559L51.5208 70.3856ZM14.0384 42.2314H23.4441V61.0243H14.0384V42.2314ZM32.7796 61.0243H42.1151V79.8877H32.8147L32.7796 61.0243ZM32.7796 42.2314H42.1151V51.6279H32.8147L32.7796 42.2314ZM51.5208 42.2314H60.8914V61.0243H51.5559L51.5208 42.2314Z" fill="#D4492A"/>
</svg>
