<svg width="74" height="87" viewBox="0 0 74 87" fill="none" xmlns="http://www.w3.org/2000/svg">
<path d="M63.1149 25.512L36.9474 0L10.8451 25.512C7.42743 28.7723 4.70198 32.7108 2.83678 37.0846C0.971568 41.4585 0.00614341 46.175 2.92246e-05 50.9432C-0.00608496 55.7115 0.947241 60.4306 2.80123 64.8093C4.65521 69.1881 7.37055 73.1339 10.7798 76.4032C17.8655 83.1306 27.1935 86.8717 36.8821 86.8717C46.5707 86.8717 55.8987 83.1306 62.9844 76.4032C66.3978 73.1424 69.1207 69.2058 70.986 64.8351C72.8514 60.4644 73.8199 55.7518 73.8322 50.9863C73.8444 46.2208 72.9001 41.5031 71.0571 37.1225C69.2142 32.7419 66.5115 28.791 63.1149 25.512ZM37.0126 78.0309C29.7205 78.0815 22.6967 75.233 17.4359 70.0916C14.861 67.6484 12.8076 64.6917 11.4037 61.4056C9.99967 58.1195 9.27513 54.5744 9.27513 50.9908C9.27513 47.4073 9.99967 43.8621 11.4037 40.576C12.8076 37.2899 14.861 34.3332 17.4359 31.89L37.0126 12.756V78.0309Z" fill="#D4492A"/>
</svg>
