<svg width="87" height="87" viewBox="0 0 87 87" fill="none" xmlns="http://www.w3.org/2000/svg">
<path d="M47.85 21.75H39.15V39.15H21.75V47.85H39.15V65.25H47.85V47.85H65.25V39.15H47.85V21.75ZM43.5 0C31.9631 0 20.8987 4.58302 12.7409 12.7409C4.58302 20.8987 0 31.9631 0 43.5C0 55.0369 4.58302 66.1013 12.7409 74.2591C20.8987 82.417 31.9631 87 43.5 87H78.3C80.6047 86.9913 82.8125 86.0719 84.4422 84.4422C86.0719 82.8125 86.9913 80.6047 87 78.3V43.5C86.9739 31.9711 82.3825 20.9219 74.2303 12.7697C66.0781 4.61752 55.0289 0.0261131 43.5 0V0ZM43.5 78.3C36.6172 78.3 29.889 76.259 24.1662 72.4351C18.4433 68.6113 13.9829 63.1763 11.349 56.8174C8.71506 50.4585 8.02591 43.4614 9.36867 36.7109C10.7114 29.9603 14.0258 23.7596 18.8927 18.8927C23.7596 14.0258 29.9603 10.7114 36.7109 9.36867C43.4614 8.02591 50.4585 8.71506 56.8174 11.349C63.1763 13.9829 68.6113 18.4433 72.4351 24.1662C76.259 29.889 78.3 36.6172 78.3 43.5C78.2826 52.7242 74.6106 61.5656 68.0881 68.0881C61.5656 74.6106 52.7242 78.2826 43.5 78.3Z" fill="#D4492A"/>
</svg>
