<svg width="61" height="89" viewBox="0 0 61 89" fill="none" xmlns="http://www.w3.org/2000/svg">
<path d="M56.6522 21.9917V8.78349C56.635 6.45362 55.7089 4.2246 54.0748 2.58018C52.4407 0.935758 50.2305 0.00862903 47.9239 0L13.0761 0C10.7639 0.00869881 8.54879 0.940372 6.91377 2.59191C5.27877 4.24344 4.35641 6.4809 4.3478 8.81651V22.0248H0V48.4413L13.0761 74.8578V88.066H47.9239V74.8578L61 48.4413V22.0248L56.6522 21.9917ZM13.0761 8.81651H47.9239V22.0248H39.2283V13.2083H34.8151V21.9917H26.1522V13.2083H21.7717V21.9917H13.0761V8.81651ZM52.3044 46.2289L39.2283 72.6454V79.2495H21.7717V72.6454L8.69561 46.2289V30.8083H52.3044V46.2289Z" fill="#D4492A"/>
</svg>
