<svg width="68" height="89" viewBox="0 0 68 89" fill="none" xmlns="http://www.w3.org/2000/svg">
<path d="M59.3887 29.6118H55.2315V21.1889C55.2315 15.5693 52.9929 10.1798 49.0081 6.20609C45.0234 2.2324 39.6189 0 33.9836 0C28.3483 0 22.9438 2.2324 18.959 6.20609C14.9742 10.1798 12.7356 15.5693 12.7356 21.1889V29.6118H8.51244C7.39179 29.6118 6.28218 29.8325 5.24725 30.2611C4.21233 30.6898 3.27246 31.318 2.48159 32.1097C1.69071 32.9015 1.06438 33.8412 0.638535 34.8749C0.212694 35.9086 -0.00427963 37.0159 6.39471e-05 38.1335V80.5113C0.00875363 82.76 0.908381 84.9141 2.50288 86.5041C4.09738 88.0942 6.25749 88.9913 8.51244 89H59.3887C61.6437 88.9913 63.8038 88.0942 65.3983 86.5041C66.9928 84.9141 67.8924 82.76 67.9011 80.5113V38.1335C67.9054 37.0159 67.6885 35.9086 67.2626 34.8749C66.8368 33.8412 66.2104 32.9015 65.4196 32.1097C64.6287 31.318 63.6888 30.6898 62.6539 30.2611C61.619 29.8325 60.5094 29.6118 59.3887 29.6118ZM21.248 21.1889C21.4144 17.9281 22.8305 14.8557 25.2037 12.6064C27.577 10.3571 30.726 9.10287 34.0001 9.10287C37.2742 9.10287 40.4232 10.3571 42.7964 12.6064C45.1696 14.8557 46.5857 17.9281 46.7521 21.1889V29.6118H21.248V21.1889ZM59.3887 80.5113H8.51244V38.1335H59.3887V80.5113ZM33.9836 67.8111C35.6643 67.8175 37.3093 67.3275 38.7113 66.403C40.1132 65.4785 41.2093 64.1609 41.8615 62.6161C42.5136 61.0713 42.6926 59.3686 42.3758 57.7225C42.059 56.0765 41.2607 54.5608 40.0814 53.3665C38.9022 52.1722 37.3948 51.3528 35.7492 51.0115C34.1037 50.6703 32.3937 50.8224 30.8347 51.4488C29.2757 52.0752 27.9376 53.1478 26.989 54.5314C26.0404 55.915 25.5237 57.5477 25.5042 59.2237C25.4955 60.3427 25.7079 61.4526 26.1293 62.4898C26.5508 63.527 27.1729 64.4713 27.9603 65.2687C28.7477 66.0661 29.6849 66.7011 30.7184 67.1373C31.7519 67.5735 32.8614 67.8025 33.9836 67.8111Z" fill="#D4492A"/>
</svg>
