<svg width="59" height="94" viewBox="0 0 59 94" fill="none" xmlns="http://www.w3.org/2000/svg">
<path d="M50.5917 0H8.44378C6.20722 0.00946546 4.06494 0.914205 2.48344 2.51719C0.901947 4.12018 0.00933855 6.29158 0 8.55853L0 85.4415C0.00933855 87.7084 0.901947 89.8798 2.48344 91.4828C4.06494 93.0858 6.20722 93.9905 8.44378 94H50.5917C52.825 93.9905 54.9636 93.0846 56.5394 91.4806C58.1153 89.8766 59 87.7051 59 85.4415V8.55853C59 6.29488 58.1153 4.12342 56.5394 2.51941C54.9636 0.915408 52.825 0.00951112 50.5917 0V0ZM50.5917 76.8829H8.44378V17.0811H50.5917V76.8829Z" fill="#D4492A"/>
</svg>
