<svg width="97" height="60" viewBox="0 0 97 60" fill="none" xmlns="http://www.w3.org/2000/svg">
<path d="M93.1059 44.8279C89.8281 44.6511 86.7415 43.1915 84.4824 40.7501C82.2233 38.3088 80.9639 35.0717 80.9639 31.7063C80.9639 28.341 82.2233 25.1039 84.4824 22.6625C86.7415 20.2211 89.8281 18.7615 93.1059 18.5847" stroke="#D4492A" stroke-width="2.19" stroke-linecap="round" stroke-linejoin="round"/>
<path d="M92.5753 18.6209H93.1063V5.77152C93.111 5.49201 93.0613 5.21434 92.9603 4.95472C92.8592 4.69509 92.7087 4.4587 92.5176 4.25935C92.3264 4.06 92.0985 3.90167 91.847 3.79361C91.5956 3.68555 91.3256 3.62992 91.053 3.62996H5.62928C5.35367 3.62504 5.07991 3.67708 4.82434 3.78296C4.56876 3.88884 4.33659 4.04641 4.14168 4.24626C3.94676 4.44611 3.79309 4.68415 3.68982 4.9462C3.58655 5.20825 3.5358 5.48893 3.54059 5.77152V18.5846C5.27782 18.4909 7.01547 18.7608 8.64768 19.3779C10.2799 19.995 11.7725 20.9464 13.0345 22.174C14.2965 23.4017 15.3015 24.8799 15.9883 26.5187C16.6751 28.1575 17.0292 29.9225 17.0292 31.7062C17.0292 33.4899 16.6751 35.2549 15.9883 36.8936C15.3015 38.5324 14.2965 40.0107 13.0345 41.2383C11.7725 42.466 10.2799 43.4174 8.64768 44.0345C7.01547 44.6516 5.27782 44.9215 3.54059 44.8278V54.2289C3.54059 54.7968 3.76065 55.3416 4.15236 55.7432C4.54406 56.1448 5.07533 56.3704 5.62928 56.3704H91.053C91.6008 56.3609 92.123 56.1311 92.5071 55.7305C92.8912 55.3299 93.1064 54.7906 93.1063 54.2289V44.8278H91.23" stroke="#D4492A" stroke-width="2" stroke-linecap="round" stroke-linejoin="round"/>
<path d="M35.3667 3.62964V11.5788" stroke="#D4492A" stroke-width="2" stroke-linecap="round" stroke-linejoin="round"/>
<path d="M35.3667 24.575V41.9252" stroke="#D4492A" stroke-width="2" stroke-linecap="round" stroke-linejoin="round" stroke-dasharray="2.98 3.58"/>
<path d="M35.3667 48.4207V56.3698" stroke="#D4492A" stroke-width="2" stroke-linecap="round" stroke-linejoin="round"/>
</svg>
