<svg width="94" height="85" viewBox="0 0 94 85" fill="none" xmlns="http://www.w3.org/2000/svg">
<path d="M71.7751 59.8633H70.251C69.4536 54.9428 67.139 50.3987 63.6344 46.8734C60.1298 43.3481 55.6125 41.0199 50.7208 40.2178V38.6846C50.7208 37.6917 50.3287 36.7395 49.6307 36.0374C48.9328 35.3353 47.9861 34.9409 46.9991 34.9409C46.012 34.9409 45.0654 35.3353 44.3674 36.0374C43.6695 36.7395 43.2774 37.6917 43.2774 38.6846V40.2178C38.3857 41.0199 33.8683 43.3481 30.3637 46.8734C26.8591 50.3987 24.5446 54.9428 23.7472 59.8633H22.2231C21.236 59.8633 20.2894 60.2577 19.5914 60.9598C18.8935 61.6619 18.5013 62.6141 18.5013 63.607C18.5013 64.5999 18.8935 65.5522 19.5914 66.2542C20.2894 66.9563 21.236 67.3507 22.2231 67.3507H71.846C72.8331 67.3507 73.7797 66.9563 74.4776 66.2542C75.1756 65.5522 75.5677 64.5999 75.5677 63.607C75.5677 62.6141 75.1756 61.6619 74.4776 60.9598C73.7797 60.2577 72.8331 59.8633 71.846 59.8633H71.7751ZM31.3324 59.8633C32.1612 56.3095 34.1599 53.1418 37.0039 50.8744C39.8478 48.6071 43.3702 47.3733 46.9991 47.3733C50.628 47.3733 54.1503 48.6071 56.9943 50.8744C59.8383 53.1418 61.8369 56.3095 62.6658 59.8633H31.3324Z" fill="#D4492A"/>
<path d="M78.1903 4.52686H15.7717C9.54666 4.52686 4.50024 9.60309 4.50024 15.8649V69.0969C4.50024 75.3587 9.54666 80.435 15.7717 80.435H78.1903C84.4154 80.435 89.4618 75.3587 89.4618 69.0969V15.8649C89.4618 9.60309 84.4154 4.52686 78.1903 4.52686Z" stroke="#D4492A" stroke-width="2.54" stroke-miterlimit="10"/>
<path d="M4.50024 22.6746H85.8109" stroke="#D4492A" stroke-width="2.54" stroke-miterlimit="10"/>
</svg>
