<svg width="96" height="96" viewBox="0 0 96 96" fill="none" xmlns="http://www.w3.org/2000/svg">
<g clip-path="url(#clip0)">
<path d="M34.7547 55.7598L27.5366 48.5418L34.7547 41.3237C36.6331 43.257 37.6838 45.8463 37.6838 48.5418C37.6838 51.2373 36.6331 53.8266 34.7547 55.7598Z" fill="#D4492A"/>
<path d="M44.5351 65.5408L39.699 60.6325C41.3183 59.0256 42.6035 57.114 43.4806 55.008C44.3577 52.902 44.8092 50.6432 44.8092 48.3619C44.8092 46.0805 44.3577 43.8217 43.4806 41.7157C42.6035 39.6097 41.3183 37.6981 39.699 36.0912L44.5712 31.219C46.8287 33.4714 48.6191 36.1476 49.8396 39.0938C51.0601 42.0401 51.6866 45.1984 51.6833 48.3874C51.6799 51.5764 51.0467 54.7334 49.82 57.6771C48.5933 60.6207 46.7973 63.2931 44.5351 65.5408Z" fill="#D4492A"/>
<path d="M54.1366 75.2844L49.2644 70.4122C55.087 64.5795 58.3573 56.6748 58.3573 48.4332C58.3573 40.1917 55.087 32.287 49.2644 26.4543L54.1366 21.6543C61.2374 28.7719 65.2253 38.4154 65.2253 48.4693C65.2253 58.5233 61.2374 68.1668 54.1366 75.2844Z" fill="#D4492A"/>
<path d="M48 1.35894e-05C38.5065 1.35894e-05 29.2262 2.81516 21.3326 8.08947C13.4391 13.3638 7.28681 20.8604 3.6538 29.6312C0.0207973 38.4021 -0.929762 48.0533 0.922328 57.3643C2.77442 66.6754 7.34598 75.2282 14.0589 81.9411C20.7718 88.6541 29.3246 93.2256 38.6357 95.0777C47.9468 96.9298 57.598 95.9792 66.3688 92.3462C75.1397 88.7132 82.6362 82.5609 87.9106 74.6674C93.1849 66.7738 96 57.4935 96 48C96.0048 41.6952 94.7664 35.4514 92.3559 29.6256C89.9454 23.7998 86.4099 18.5065 81.9517 14.0483C77.4936 9.59015 72.2002 6.05468 66.3744 3.64413C60.5487 1.23359 54.3048 -0.0047322 48 1.35894e-05ZM48 86.4C40.4052 86.4 32.981 84.1479 26.6661 79.9284C20.3513 75.709 15.4295 69.7117 12.523 62.6951C9.61664 55.6784 8.85619 47.9574 10.3379 40.5085C11.8195 33.0597 15.4768 26.2174 20.8471 20.8471C26.2175 15.4768 33.0597 11.8195 40.5086 10.3379C47.9574 8.85619 55.6784 9.61663 62.6951 12.523C69.7117 15.4294 75.709 20.3513 79.9285 26.6661C84.1479 32.981 86.4 40.4052 86.4 48C86.4 58.1843 82.3543 67.9515 75.1529 75.1529C67.9515 82.3543 58.1843 86.4 48 86.4Z" fill="#D4492A"/>
</g>
<defs>
<clipPath id="clip0">
<rect width="96" height="96" fill="white"/>
</clipPath>
</defs>
</svg>
